<?xml version="1.0" standalone="no"?>
<!DOCTYPE svg PUBLIC "-//W3C//DTD SVG 1.1//EN" "http://www.w3.org/Graphics/SVG/1.1/DTD/svg11.dtd" >
<!--
2013-9-30: Created.
-->
<svg>
<metadata>
Created by iconfont
</metadata>
<defs>

<font id="iconfont" horiz-adv-x="1024" >
  <font-face
    font-family="iconfont"
    font-weight="500"
    font-stretch="normal"
    units-per-em="1024"
    ascent="896"
    descent="-128"
  />
    <missing-glyph />
    
    <glyph glyph-name="biangengguanli" unicode="&#59031;" d="M0 896m64 0l192 0q64 0 64-64l0-192q0-64-64-64l-192 0q-64 0-64 64l0 192q0 64 64 64ZM704 192m64 0l192 0q64 0 64-64l0-192q0-64-64-64l-192 0q-64 0-64 64l0 192q0 64 64 64ZM-20.00601 286.682203m33.941126 33.941125l113.137085 113.137085q33.941125 33.941125 67.882251 0l0 0q33.941125-33.941125 0-67.882251l-113.137085-113.137085q-33.941125-33.941125-67.882251 0l0 0q-33.941125 33.941125 0 67.882251ZM273.533091 219.218226m-33.941126 33.941125l-113.137085 113.137085q-33.941125 33.941125 0 67.882251l0 0q33.941125 33.941125 67.882251 0l113.137085-113.137085q33.941125-33.941125 0-67.882251l0 0q-33.941125-33.941125-67.882251 0ZM112 448m48 0l0 0q48 0 48-48l0-368q0-48-48-48l0 0q-48 0-48 48l0 368q0 48 48 48ZM576 80m0-48l0 0q0-48-48-48l-368 0q-48 0-48 48l0 0q0 48 48 48l368 0q48 0 48-48ZM1043.792048 481.397326m-33.941125-33.941125l-113.137085-113.137085q-33.941125-33.941125-67.882251 0l0 0q-33.941125 33.941125 0 67.882251l113.137085 113.137085q33.941125 33.941125 67.882251 0l0 0q33.941125-33.941125 0-67.882251ZM750.154674 548.90201m33.941125-33.941126l113.137085-113.137085q33.941125-33.941125 0-67.882251l0 0q-33.941125-33.941125-67.882251 0l-113.137085 113.137085q-33.941125 33.941125 0 67.882251l0 0q33.941125 33.941125 67.882251 0ZM912 320m-48 0l0 0q-48 0-48 48l0 368q0 48 48 48l0 0q48 0 48-48l0-368q0-48-48-48ZM448 687.36m0 48l0 0q0 48 48 48l368 0q48 0 48-48l0 0q0-48-48-48l-368 0q-48 0-48 48Z"  horiz-adv-x="1024" />

    
    <glyph glyph-name="shandian" unicode="&#59030;" d="M556.954 479.795L665.293 896 179.2 356.352l253.491-59.392-108.288-416.256 486.042 539.7z"  horiz-adv-x="1024" />

    
    <glyph glyph-name="fengxian1" unicode="&#59537;" d="M64.192 795.392a27.072 27.072 0 0 0 21.12 25.792S453.12 896 511.552 896c58.432 0 427.776-74.88 427.776-74.88a27.072 27.072 0 0 0 20.608-25.6v-389.12a544 544 0 0 0-211.84-404.032S573.632-128 514.24-128c-59.456 0-237.824 131.584-237.824 131.584A543.552 543.552 0 0 0 64 406.4l0.192 388.992z m416.32-177.536L385.472 368a11.52 11.52 0 0 1 0.64-11.52 10.944 10.944 0 0 1 10.304-4.864h91.52a13.184 13.184 0 0 0 11.264-5.12 13.824 13.824 0 0 0 2.368-12.352l-29.568-145.728c-7.808-38.272 3.968-43.52 26.176-11.84l181.888 258.944c5.568 7.936 2.24 14.464-7.36 14.656L558.848 453.12a10.56 10.56 0 0 0-10.24 4.928 11.072 11.072 0 0 0-0.192 11.52l63.872 148.416a10.816 10.816 0 0 1-0.256 11.392 10.304 10.304 0 0 1-10.24 4.608H504.192a27.392 27.392 0 0 1-23.616-16.384v0.256z"  horiz-adv-x="1024" />

    
    <glyph glyph-name="icongou" unicode="&#59029;" d="M497.34542222 174.75690192000002l-59.80402725-59.80402725c-4.1979449-4.1979449-11.06587497-4.1979449-15.26503349 0l-298.26040415 298.26040415c-4.1979449 4.19673124-4.1979449 11.06587497 0 15.26381985l59.80402727 59.80402725c4.19673124 4.1979449 11.06587497 4.1979449 15.26381985 0l298.26040415-298.26040415c4.19673124-4.1979449 4.19673124-11.06587497 0-15.26503348zM421.6707603 114.95166104999998l-59.80402728 59.80402724c-4.19673124 4.1979449-4.19673124 11.06587497 0 15.26381986l462.67566462 462.6756646c4.1979449 4.1979449 11.06587497 4.1979449 15.26381984 0l59.80402727-59.80402729c4.1979449-4.1979449 4.1979449-11.06587497 0-15.26503346l-462.67687823-462.67566459c-4.1979449-4.1979449-11.06587497-4.1979449-15.26381985 0z"  horiz-adv-x="1024" />

    
    <glyph glyph-name="dianziweilan1" unicode="&#59027;" d="M982.162286 310.857143A475.136 475.136 0 0 0 585.142857-91.136V-128h-146.285714v36.864A474.843429 474.843429 0 0 0 41.545143 310.857143H0v146.285714h44.178286A475.721143 475.721143 0 0 0 438.857143 847.140571V896h146.285714v-48.859429A475.721143 475.721143 0 0 0 980.406857 457.142857H1024v-146.285714zM475.428571-91.428571h73.142858v73.142857h-73.142858z m-438.857142 512v-73.142858h73.142857v73.142858z m512 438.857142h-73.142858v-73.142857h73.142858zM585.142857 791.844571V749.714286h-146.285714V791.844571A420.717714 420.717714 0 0 1 98.889143 457.142857H146.285714v-146.285714H96.841143A420.132571 420.132571 0 0 1 438.857143-37.302857V18.285714h146.285714v-55.588571A420.132571 420.132571 0 0 1 926.866286 310.857143H877.714286v146.285714h47.104A420.717714 420.717714 0 0 1 585.142857 791.844571z m402.285714-371.273142h-73.142857v-73.142858h73.142857z"  horiz-adv-x="1024" />

    
    <glyph glyph-name="fengxian" unicode="&#59028;" d="M595.996444 592.696889l0.512 1.991111a25.400889 25.400889 0 0 1-6.4 23.523556 24.718222 24.718222 0 0 1-17.749333 7.566222H437.191111a24.832 24.832 0 0 1-23.608889-17.607111l-85.248-263.509334a25.173333 25.173333 0 0 1 23.637334-33.080889h109.653333l8.021333-172.032 0.938667-4.465777a13.511111 13.511111 0 0 0-0.910222 5.859555l0.056889 0.170667a25.031111 25.031111 0 0 1 24.746666-27.335111 24.547556 24.547556 0 0 1 22.471111 14.961778l148.878223 284.814222a25.116444 25.116444 0 0 1-22.186667 36.352h-93.895111l46.222222 142.791111zM497.493333 152.860444l-8.732444 187.164445h-132.067556l83.285334 257.308444h127.658666l-50.972444-157.240889-6.030222-18.602666h127.288889l-140.430223-268.629334z"  horiz-adv-x="1024" />

    
    <glyph glyph-name="jichuxinxi" unicode="&#59052;" d="M807.875 661.875c68.681 0 96.581-25.538 96.581-87.975v-585.506H299.038V661.875h508.837m0 54.394H294.931c-27.731 0-50.231-21.431-50.231-47.531v-687.263c0-26.044 22.613-47.475 50.231-47.475h613.463c27.675 0 50.231 21.431 50.231 47.531V573.9c0.056 82.237-42.019 142.369-150.75 142.369z m0 0M907.381 525.694a16.931 16.931 0 0 0-11.081 3.937c-43.594 34.369-91.631 30.994-91.969 30.994a18.113 18.113 0 0 0-14.287 5.231 18 18 0 0 0-5.4 14.006c3.431 53.663-50.231 79.538-50.738 79.763a18.169 18.169 0 0 0-8.662 24.131c4.387 9 15.187 12.938 24.187 8.606 2.869-1.237 64.407-31.162 71.1-95.906 22.5-1.8 61.425-9.394 98.325-38.362a18 18 0 0 0 2.982-25.369 18.113 18.113 0 0 0-14.457-7.031zM786.444 481.2H424.306a18 18 0 1 0 0 36h362.138a18 18 0 1 0 0-36z m0-190.8H424.306a18 18 0 1 0 0 35.944h362.138a18 18 0 1 0 0-35.944z m0-189H424.306a18 18 0 1 0 0 36h362.138a18 18 0 1 0 0-36z m0 0M244.7 33.562H134.281c-39.937 0-72.281 32.57-72.281 72.563V761.663C62 801.43 94.344 834 134.281 834h462.094c84.037 0 140.063-39.6 157.331-111.375a27.056 27.056 0 0 0-19.969-32.794A27.169 27.169 0 0 0 701 709.8c-11.306 46.969-45.506 69.806-104.344 69.806H134.281a18.281 18.281 0 0 1-18.112-18.168V105.9c0-9.9 8.212-18.169 18.112-18.169H244.7a27.169 27.169 0 0 0 0-54.169z m0 0"  horiz-adv-x="1024" />

    
    <glyph glyph-name="zu" unicode="&#59026;" d="M702.959032-126.511729a69.745782 69.745782 0 0 0-51.142397 21.782873 130.697237 130.697237 0 0 1-226.893651 1.285324 69.813431 69.813431 0 0 0-50.804153-21.37698 64.26624 64.26624 0 0 0-26.04474 5.276596l-1.420622 0.608838-132.726697 74.413541-1.285325 0.947082a63.72505 63.72505 0 0 0-21.376981 76.916541 158.636139 158.636139 0 0 1 12.24441 54.118939A140.844538 140.844538 0 0 1 62.799635 228.102617H57.252444c-22.188765 0-40.589204 19.753413-46.068747 50.330613a502.359049 502.359049 0 0 0 0 212.078592c5.885435 30.915444 24.353522 50.804154 46.94818 50.262964h4.667758a140.844538 140.844538 0 0 1 140.709241 140.709241 158.703788 158.703788 0 0 1-12.24441 54.118939 63.589753 63.589753 0 0 0 21.579927 76.848893l1.352973 0.947081L354.230121 890.315482l1.48827 0.608838a65.010375 65.010375 0 0 0 25.706496 5.073651 71.031107 71.031107 0 0 0 50.939451-20.971089 130.494291 130.494291 0 0 1 222.022947-1.217676 71.166405 71.166405 0 0 0 50.533559 20.294602 64.942727 64.942727 0 0 0 26.180037-5.276597l1.420622-0.608838 135.297347-75.157676 1.352973-0.947082a63.657402 63.657402 0 0 0 21.44463-76.916541 158.365545 158.365545 0 0 1-12.24441-54.118939 140.844538 140.844538 0 0 1 140.641592-140.709241h4.735407c22.594657 0.541189 41.062745-19.347521 46.948179-50.262964a502.020806 502.020806 0 0 0 0-212.078592c-5.817786-30.915444-24.353522-50.736505-46.948179-50.262964h-4.735407a140.844538 140.844538 0 0 1-140.641592-140.641592 158.974383 158.974383 0 0 1 12.24441-54.118939 63.657402 63.657402 0 0 0-21.512279-76.848893l-1.352973-0.947082-137.529753-76.037109-1.420622-0.608838a64.063294 64.063294 0 0 0-25.571199-5.141299z m-4.194217 64.807429a8.726679 8.726679 0 0 1 4.194217-1.082379l128.53248 71.031107a218.302269 218.302269 0 0 0-17.31806 78.675408 204.637237 204.637237 0 0 0 193.678152 204.096048 438.228107 438.228107 0 0 1 0 185.763257 204.637237 204.637237 0 0 0-193.678152 204.096048 218.369918 218.369918 0 0 0 17.31806 78.675407L705.056141 829.769919h-0.338243a9.944355 9.944355 0 0 1-4.803056-1.217676 357.658537 357.658537 0 0 0-46.745233-39.303879 165.73925 165.73925 0 0 0-219.925838 0.811784 358.064429 358.064429 0 0 0-47.354071 40.048015 10.079652 10.079652 0 0 1-4.870705 1.285324h-0.47354L249.577623 759.482947a218.505215 218.505215 0 0 0 17.250411-78.607758 204.637237 204.637237 0 0 0-193.678152-204.096048 437.348674 437.348674 0 0 1 0-185.763257 204.637237 204.637237 0 0 0 193.678152-204.096048 218.369918 218.369918 0 0 0-17.31806-78.743056l123.93237-69.339891a8.591382 8.591382 0 0 1 4.397164 1.082379 363.476323 363.476323 0 0 0 47.354071 41.603934 165.401007 165.401007 0 0 0 225.337731-0.811784 363.746917 363.746917 0 0 0 47.692315-42.415718z m0 0M538.437458 197.254822a187.319177 187.319177 0 1 0 187.319177 187.319177 187.522123 187.522123 0 0 0-187.319177-187.319177z m0 311.183898a123.594126 123.594126 0 1 1 123.661776-123.594126 123.729424 123.729424 0 0 1-123.661776 123.594126z m0 0"  horiz-adv-x="1083" />

    
    <glyph glyph-name="fanhui1" unicode="&#59025;" d="M1024 364.32917 243.021308 364.32917l358.136664 358.136664L511.623806 812 0 300.376194l511.623806-511.623806 89.534166 89.534166L243.021308 236.423218l780.226304 0L1023.247612 364.32917z"  horiz-adv-x="1025" />

    
    <glyph glyph-name="liuliang4" unicode="&#59023;" d="M512.001396 895.997207c81.733595 0 160.255563-18.43195 232.354276-55.249304a526.660382 526.660382 0 0 0 177.104971-148.107232 42.216612 42.216612 0 0 0-8.052341-59.252202 42.263157 42.263157 0 0 0-59.252202 8.005796 434.73336 434.73336 0 0 1-148.246869 124.089844A427.193017 427.193017 0 0 1 512.001396 811.936346 428.217014 428.217014 0 0 1 209.13095 687.008686a424.214116 424.214116 0 0 1-124.974205-302.63772c0-114.501506 44.869696-221.788486 124.974205-302.63772a425.657021 425.657021 0 0 1 302.870446-125.672384 428.217014 428.217014 0 0 1 302.870447 124.834568c80.104509 81.68705 124.974205 188.97403 124.974205 302.63772 0 41.658068-5.585439 82.478321-17.594134 121.716032a41.93734 41.93734 0 0 0 28.858103 52.037676 41.983885 41.983885 0 0 0 52.037676-28.858103 515.163686 515.163686 0 0 0-19.22322-344.249243 506.692436 506.692436 0 0 0-109.753883-162.489738c-47.290053-46.452237-101.748086-84.107407-162.67592-109.707338-63.301646-26.437746-130.606189-40.028982-199.493274-40.028981-68.887085 0-136.191629 13.591236-199.493274 40.028981a507.111344 507.111344 0 0 0-162.67592 109.707338 506.692436 506.692436 0 0 0-109.753882 162.489738A515.02405 515.02405 0 0 0 0.002793 383.579696c0 68.887085 13.637781 136.145083 40.028981 199.353638a506.692436 506.692436 0 0 0 109.846974 162.536284A507.111344 507.111344 0 0 0 312.461577 855.176955 499.757182 499.757182 0 0 0 512.001396 895.997207zM392.845358 486.631051L327.495718 153.133779a34.908996 34.908996 0 1 1 68.514722-13.4516l84.898678 432.63882a37.236262 37.236262 0 0 1-62.044922 34.350452l-128.51165-120.552399A34.908996 34.908996 0 0 1 338.061507 435.198464l54.830396 51.432587zM666.066431 575.067173a34.908996 34.908996 0 1 1-68.468177 13.498145l-84.898678-432.685365a37.236262 37.236262 0 0 1 61.998377-34.303906l128.511649 120.505853a34.908996 34.908996 0 0 1-47.708961 50.920588l-54.830396-51.386041 65.442731 333.450726z"  horiz-adv-x="1024" />

    
    <glyph glyph-name="fenxi" unicode="&#59024;" d="M227.4304-51.571199999999976a44.2368 44.2368 0 0 0-44.176 45.02506667V223.43679999999995a44.96533333 44.96533333 0 1 0 89.08053334 0v-229.98293333a44.90453333 44.90453333 0 0 0-44.90453334-45.02506667z m221.54773334 0a44.2368 44.2368 0 0 0-44.1152 45.02506667V357.664a44.90453333 44.90453333 0 0 0 89.08053333 0v-363.4816a44.90453333 44.90453333 0 0 0-44.90453333-45.7536z m221.6096 0a44.2368 44.2368 0 0 0-44.11626667 45.02506667v159.95733333a44.90453333 44.90453333 0 0 0 89.08053333 0v-159.95733333a44.90453333 44.90453333 0 0 0-44.90453333-45.02506667z m221.60853333 0a44.2368 44.2368 0 0 0-44.176 45.02506667v294.912a44.96533333 44.96533333 0 1 0 89.14133333 0v-298.61333334a44.90453333 44.90453333 0 0 0-44.90453333-41.264zM169.23733334 394.55893333a44.176 44.176 0 0 0-36.0448 17.6576 45.02613333 45.02613333 0 0 0 11.0432 62.6848l320.21653333 246.9728a45.57226667 45.57226667 0 0 0 55.22026667 0l147.27466666-120.14933333 237.81013334 198.368a44.53973333 44.53973333 0 0 0 57.4048-67.84213333L697.8336 509.54986667a44.1152 44.1152 0 0 0-56.67733333 0l-147.2128 120.93866666-294.54826667-226.3424a45.57226667 45.57226667 0 0 0-30.15786666-9.5872zM933.4592 570.7776a44.90453333 44.90453333 0 0 0-44.90453333 44.2368v123.85066667H763.37066667a44.96533333 44.96533333 0 0 0 0 89.20213333h170.09066667a44.90453333 44.90453333 0 0 0 44.90346666-44.176v-168.8768a44.90453333 44.90453333 0 0 0-44.90453333-44.2976z"  horiz-adv-x="1080" />

    
    <glyph glyph-name="view" unicode="&#59020;" d="M518.537 117.543c-134.736 0-271.484 65.861-417.786 198.082-5.028 4.525-10.054 8.548-14.077 12.066-17.093 14.58-28.155 24.634-28.657 41.729-0.502 17.093 10.054 27.651 26.142 44.24 3.518 3.518 7.54 7.54 12.066 12.066 0 0 0 0 0 0 138.758 144.289 273.495 215.177 412.756 217.187 137.753 2.011 273.495-64.353 414.768-202.608 25.639-25.139 39.214-42.733 39.214-63.849 0-22.624-17.093-39.214-33.182-54.799-140.268-136.244-274.501-204.116-411.25-204.116zM112.817 371.433c2.011-2.011 4.525-4.022 6.537-6.032 4.022-3.518 9.050-8.043 14.58-12.567 135.744-122.167 258.916-182.999 376.559-185.012 124.178-2.513 249.869 59.826 384.1 189.538 4.525 4.525 15.584 15.084 18.098 19.607-1.508 3.018-6.537 10.559-24.132 28.155-131.216 128.202-254.894 190.039-379.073 188.029-125.185-2.011-248.358-67.871-377.061-201.602-4.525-5.028-9.050-9.050-12.567-12.567-2.011-3.018-4.525-5.531-7.041-7.54zM510.492 241.722c76.418 0 138.758 62.34 138.758 138.758s-62.34 138.758-138.758 138.758c-76.418 0-138.758-62.34-138.758-138.758 0-76.418 62.34-138.758 138.758-138.758z"  horiz-adv-x="1024" />

    
    <glyph glyph-name="yincang" unicode="&#59022;" d="M930.661 575.839c11.693-13.252 10.43-33.474-2.822-45.167-38.835-34.266-78.842-63.323-119.987-87.141l54.11-144.295c6.206-16.548-2.178-34.993-18.726-41.199-15.574-5.84-32.83 1.243-39.98 15.893l-1.219 2.834-51.5 137.31c-66.12-29.791-135-46.679-206.518-50.546L544 224c0-17.673-14.327-32-32-32-16.634 0-30.303 12.69-31.854 28.918L480 224l0.002 139.527c-71.525 3.865-140.413 20.753-206.538 50.547l-51.501-137.31c-6.206-16.548-24.651-24.932-41.199-18.727-15.574 5.84-23.917 22.523-19.671 38.262l0.944 2.937 54.111 144.295c-41.145 23.818-81.152 52.875-119.987 87.14-13.252 11.694-14.515 31.916-2.822 45.168 11.692 13.252 31.914 14.515 45.166 2.822 41.325-36.462 83.793-66.32 127.457-89.622 0.42-0.1 0.848-0.25 1.274-0.41a32.004 32.004 0 0 0 8.118-4.468c75.254-38.416 154.051-57.494 236.646-57.494s161.392 19.078 236.654 57.475a31.3 31.3 0 0 0 8.11 4.487l1.253 0.399c43.671 23.303 86.147 53.165 127.478 89.633 13.252 11.693 33.474 10.43 45.166-2.822z"  horiz-adv-x="1024" />

    
    <glyph glyph-name="ceshi1" unicode="&#59016;" d="M68.266667 554.666667h955.733333a68.266667 68.266667 0 0 0 68.266667-68.266667v-546.133333a68.266667 68.266667 0 0 0-68.266667-68.266667H68.266667a68.266667 68.266667 0 0 0-68.266667 68.266667V486.4a68.266667 68.266667 0 0 0 68.266667 68.266667z m0-68.266667v-546.133333h955.733333V486.4H68.266667zM276.343467 827.733333h585.1136c29.2864 0 48.7424 13.653333 48.7424 34.133334s-19.456 34.133333-48.7424 34.133333H276.343467c-29.2864 0-48.810667-13.653333-48.810667-34.133333s19.524267-34.133333 48.810667-34.133334zM182.0672 645.666133h728.132267c27.306667 0 45.533867 13.653333 45.533866 34.133334s-18.2272 34.133333-45.533866 34.133333H182.0672c-27.306667 0-45.533867-13.653333-45.533867-34.133333s18.2272-34.133333 45.533867-34.133334z"  horiz-adv-x="1092" />

    
    <glyph glyph-name="tingyong" unicode="&#58999;" d="M512-128c-280.868571 0-512 231.131429-512 512s231.131429 512 512 512 512-231.131429 512-512-226.523429-507.465143-512-512zM512 814.445714a425.398857 425.398857 0 0 1-425.910857-425.910857A425.398857 425.398857 0 0 1 512-37.376a425.398857 425.398857 0 0 1 425.910857 425.910857A425.398857 425.398857 0 0 1 512 814.445714z m-285.988571-66.267428l630.198857-630.198857-67.291429-67.218286L153.746286 686.08l72.338285 62.171429z"  horiz-adv-x="1024" />

    
    <glyph glyph-name="ceshi" unicode="&#59001;" d="M762.787 709.26c14.615 0 26.438-13.592 26.438-30.301v-343.506c0-16.756-11.823-30.254-26.438-30.254H261.12c-14.569 0-26.345 13.498-26.345 30.254V678.96c0 16.756 11.823 30.254 26.345 30.254h501.667m0 47.15H261.12c-41.286 0-74.938-34.722-74.938-77.404v-343.506c0-42.682 33.652-77.405 74.938-77.405h501.76c41.286 0 74.938 34.723 74.938 77.452V678.959c-0.046 42.682-33.699 77.405-75.031 77.405M427.194 105.053c-15.36 0-27.694 11.59-27.694 25.88v143.36h232.727v-143.36c-0.047-14.29-12.474-25.88-27.741-25.88H427.148z m-54.458 48.268h-132.84a22.249 22.249 0 0 0-22.808 21.736v0.466c0 11.962 10.24 21.69 22.807 21.69H372.83v-43.892z m285.324 0h132.933c12.568 0 22.808 9.774 22.808 21.736v0.466a22.249 22.249 0 0 1-22.808 21.69H658.06v-43.892z m-70.19 231.424a23.412 23.412 0 0 0-16.385 6.516 21.271 21.271 0 0 0 0.28 31.046l84.526 79.267-81.455 77.73a21.271 21.271 0 0 0 0 31 23.785 23.785 0 0 0 32.582 0l114.176-108.916-117.62-110.313a23.738 23.738 0 0 0-16.105-6.33z m-210.386 0a23.412 23.412 0 0 1 16.43 6.516 21.271 21.271 0 0 1-0.28 31.046l-84.526 79.36 81.408 77.591a21.271 21.271 0 0 1 0 31.046 23.785 23.785 0 0 1-32.581 0L243.898 501.388l117.574-110.313c4.422-4.19 10.287-6.33 16.105-6.33z m156.3 176.174L474.81 399.825a22.575 22.575 0 0 0-28.625-13.963 22.342 22.342 0 0 0-12.893 28.951l58.973 161.14a22.575 22.575 0 0 0 28.625 13.964 22.295 22.295 0 0 0 12.893-28.998z"  horiz-adv-x="1024" />

    
    <glyph glyph-name="gongju" unicode="&#59012;" d="M574 151.6l167.7-167.7c7.2-7.2 14.2-14.5 21.6-21.4 30.6-28.8 75.3-31.5 112-14 37.3 17.8 56.5 62.1 50.6 101.7-3.5 23.5-15.7 42.6-32.2 59.1l-181 181c-9.2 9.2-24.7 9.2-33.9 0L574 185.5c-21.9-21.9 12-55.8 33.9-33.9l104.8 104.8h-33.9l167.7-167.7c7.2-7.2 14.5-14.2 21.4-21.6 24.6-26.1 8-69.2-23.4-79.7-37.6-12.7-65.5 27.1-88.6 50.2l-148 148c-21.8 21.8-55.8-12.1-33.9-34zM328.2 638.9l-21.3 64.8c-6.6 20.1-9.7 46.1-32.3 53.2L140.2 799.3c-8.1 2.6-17.5-0.3-23.3-6.2l-45.8-45.7c-5.9-5.9-8.7-15.3-6.2-23.3l35.6-112.7c4.9-15.6 7.7-36.8 25.3-42.6l55.5-18.2 31.6-10.4 9.6-3.1c8.6-2.8-8.5 6-7.5 4.9l24.1-24.1 104.1-104.1 54.2-54.2c9.2-9.2 24.7-9.2 33.9 0l73.2 73.3c9.2 9.2 9.2 24.7 0 33.9L322 649.5c-21.9 21.9-55.8-12-33.9-33.9l182.7-182.7v33.9l-73.2-73.3h33.9L285.3 539.7c-14.7 14.7-30.6 37.3-51 44l-96 31.5 16.7-16.8-43.8 138.4-6.2-23.3 45.8 45.7-23.3-6.2 138.4-43.7-16.7 16.8 32.8-100c9.6-29.2 55.9-16.7 46.2 12.8z m0 0M623.7 167.3l73.2 73.3c9.2 9.2 9.2 24.7 0 33.9L609.5 362c-9.2 9.2-24.7 9.2-33.9 0l-73.3-73.3c-9.2-9.2-9.2-24.7 0-33.9l87.4-87.4c21.9-21.9 55.8 12 33.9 33.9l-87.4 87.4v-33.9l73.2 73.3h-33.9l87.4-87.4v33.9l-73.2-73.3c-21.8-21.9 12.1-55.8 34-34z m0 0M721.5 450c37.2-2.3 78.6 0.9 111 20.9 22.6 13.9 38.5 40.2 53.3 61.5 25 36 48.2 73.5 70.3 111.3 5.5 9.3 3.9 21.4-3.8 29.1L909.1 716c-9.2 9.2-24.7 9.2-33.9 0l-99.4-99.4h33.9l-65 65v-33.9l99.4 99.4c9.2 9.2 9.2 24.7 0 33.9L801 824.1c-7.6 7.6-19.8 9.2-29.1 3.8-43.9-25.7-87.6-52.6-128.6-82.6-27.3-20-47.8-39.4-58.2-72.7-10.9-35.2-10.6-75.9-3.1-111.7l6.2 23.3-332.3-332.4-131.6-131.6c-52.4-52.4-30.4-136.2 36-163.1 41.7-16.9 82.2 4 111.3 33L645 363.6l93.4 93.5c21.9 21.9-12 55.8-33.9 33.9L374.7 161.1 231.8 18.2c-9.4-9.4-19.4-15.5-32.7-18.3-34.5-7.2-62.2 29.2-55.6 60.8 4.2 19.9 24.2 35.2 38 48.9l386 386 46.6 46.6 7.9 7.8c9.8 9.8 6.4 21.4 4.5 33.3-2.2 13.5-1.7 27.8-1 41.4 1.2 23.1 6 48.2 23.8 64.3 16.5 15 35.7 27.3 54.3 39.7 30.3 20.2 61.3 39.3 92.7 57.7l-29.1 3.8 43.1-43.1V781l-99.4-99.4c-9.2-9.2-9.2-24.7 0-33.9l65-65c9.2-9.2 24.7-9.2 33.9 0l99.4 99.4h-33.9l43.2-43.2-3.8 29.1c-19.7-33.6-40.3-66.7-61.9-99-12.3-18.3-24.7-37.2-40.2-53-20.8-21.3-64-19.5-91.1-17.9-30.9 1.8-30.7-46.2 0-48.1z m0 0"  horiz-adv-x="1024" />

    
    <glyph glyph-name="jihuo1" unicode="&#59013;" d="M339.84-77.824a37.44 37.44 0 0 0 0 74.88h321.024a37.44 37.44 0 0 0 0-74.88H339.84z m385.984 113.472H269.632a37.44 37.44 0 0 0 0 74.88h456.192a37.44 37.44 0 0 0 0-74.88z m-166.272 148.544a37.44 37.44 0 0 0 20.16 48.96 204.16 204.16 0 0 1 126.08 189.056A204.928 204.928 0 0 1 501.12 626.88a204.928 204.928 0 0 1-204.672-204.672c0-80.384 47.36-153.6 120.704-186.688a37.44 37.44 0 1 0-30.784-68.224 280.128 280.128 0 0 0-164.736 254.912c0 74.688 29.056 144.832 81.92 197.632a277.696 277.696 0 0 0 197.568 81.92c74.688 0 144.896-29.12 197.696-81.92a277.696 277.696 0 0 0 81.856-197.632 279.36 279.36 0 0 0-172.16-258.176 37.248 37.248 0 0 0-48.96 20.16z m-58.304 537.408a37.44 37.44 0 0 0-37.44 37.44V857.408a37.44 37.44 0 0 0 74.88 0V759.04a37.44 37.44 0 0 0-37.44-37.44zM228.736 596.288a37.312 37.312 0 0 0-28.672 13.376L136.832 684.992a37.44 37.44 0 0 0 57.344 48.128l63.232-75.392a37.44 37.44 0 0 0-28.672-61.44z m525.568 12.224a37.44 37.44 0 0 0-4.608 52.736l63.232 75.392a37.44 37.44 0 1 0 57.344-48.128l-63.232-75.328a37.376 37.376 0 0 0-52.736-4.672zM406.208 56.128a37.44 37.44 0 0 0-37.44 37.44v104.64a37.44 37.44 0 0 0 74.88 0v-104.64a37.44 37.44 0 0 0-37.44-37.44z m188.288-2.304a37.44 37.44 0 0 0-37.44 37.376v104.704a37.44 37.44 0 0 0 74.88 0v-104.704a37.44 37.44 0 0 0-37.44-37.376z"  horiz-adv-x="1024" />

    
    <glyph glyph-name="zaiyongshu" unicode="&#59015;" d="M901.92 255.14c-14.59 0.13-26.49-11.66-26.49-26.25v-62.54H263.98V745.27h117.94c14.56 0 26.34 11.85 26.25 26.41-0.09 14.44-11.82 26.09-26.25 26.09H236.48c-13.81 0-25-11.19-25-25v-122.62H123.6c-13.81 0-25-11.19-25-25v-633.83c0-13.81 11.19-25 25-25h666.45c13.81 0 25 11.19 25 25V113.94h87.88c13.81 0 25 11.19 25 25v89.95c0 14.41-11.61 26.12-26.01 26.25zM762.55 18.73H151.1V597.56h60.38v-458.62c0-13.81 11.19-25 25-25h526.07v-95.21zM844.44 707.1c-50.68 50.87-118.23 78.79-190.01 78.79-71.78 0-139.42-27.92-190.19-78.7-50.78-50.77-78.79-118.32-78.79-190.1s28.01-139.42 78.79-190.2c50.77-50.77 118.32-78.78 190.1-78.78s139.33 28.01 190.1 78.78c50.78 50.78 78.79 118.32 78.79 190.1 0 71.79-28.01 139.33-78.79 190.11zM654.43 301.32c-118.92 0-215.68 96.75-215.68 215.67s96.75 215.68 215.68 215.68c118.92 0 215.68-96.76 215.68-215.68s-96.75-215.67-215.68-215.67zM617.02 437.93c6.27-6.27 14.56-9.49 22.76-9.49 8.2 0 16.49 3.13 22.76 9.49l113.98 113.98c12.63 12.63 12.63 32.99 0 45.61-12.62 12.63-32.99 12.63-45.61 0l-91.23-91.23-42.57 42.75c-12.63 12.63-32.99 12.63-45.62 0-12.63-12.62-12.63-32.99 0-45.61l65.53-65.5z"  horiz-adv-x="1024" />

    
    <glyph glyph-name="zhangdan1" unicode="&#59168;" d="M947.5 884.8H318.4c-42.2 0-76.5-34.3-76.5-76.5V730H76.5C34.3 729.9 0 695.6 0 653.4v-619.3C0-48.1 66.9-115 149.1-115h707c92.5 0 167.8 75.3 167.8 167.9V808.2c0.1 42.3-34.2 76.6-76.4 76.6z m-91.3-943.6H265.4c21.3 26.5 32.8 59 32.8 92.9V808.2c0 11.2 9.1 20.3 20.2 20.3h629.1c11.2 0 20.3-9.1 20.3-20.3v-755.4c0-61.5-50.1-111.6-111.6-111.6z m-800 712.2c0 11.1 9.1 20.2 20.3 20.2h165.6v-639.5c0-51.2-41.7-92.9-92.9-92.9s-92.9 41.7-92.9 92.9V653.4zM777.9 187H658.2v53h99.2c13.9 0 25.2 11.2 25.2 25.2 0 13.8-11.3 25.1-25.2 25.1h-50l44.7 54.6c4.2 5.1 6.2 11.7 5.6 18.3s-3.9 12.8-9.1 17.1c-5.8 4.6-12.5 6.4-18.4 5.5-6.7-0.7-12.7-3.9-16.9-9.1l-70.9-86.5h-18.6L553 376.6c-4.2 5.2-10.3 8.5-17.1 9.2-7 0.5-13.2-1.4-18.3-5.5-5.2-4.3-8.5-10.3-9.2-17.1-0.7-6.7 1.3-13.3 5.6-18.5l44.7-54.6h-50c-13.9 0-25.2-11.2-25.2-25.1 0-13.9 11.3-25.2 25.2-25.2H608v-53H487.5c-13.9 0-25.2-11.2-25.2-25.2 0-13.8 11.3-25.1 25.2-25.1h120.3V22c0-13.8 11.3-25.1 25.2-25.1s25.2 11.2 25.2 25V136.7h119.7c13.9 0 25.2 11.2 25.2 25.1-0.1 13.9-11.4 25.2-25.2 25.2zM874.9 724.6H391c-13.9 0-25.2-11.2-25.2-25.2 0-13.8 11.3-25.1 25.2-25.1h483.9c13.9 0 25.2 11.2 25.2 25.1-0.1 13.9-11.4 25.2-25.2 25.2zM874.9 543.1H391c-13.9 0-25.2-11.2-25.2-25.2 0-13.8 11.3-25.1 25.2-25.1h483.9c13.9 0 25.2 11.2 25.2 25.1-0.1 13.9-11.4 25.2-25.2 25.2z"  horiz-adv-x="1024" />

    
    <glyph glyph-name="position" unicode="&#58989;" d="M942.666249 178.33197700000005c-36.670631 26.374544-88.792071 47.994992-154.908711 64.233699a29.379238 29.379238 0 1 1-14.021909-57.009077c108.556286-26.708399 173.364215-68.907668 173.364215-112.98988 0-36.563798-46.552739-72.79374-127.719562-99.40866-82.061555-26.908712-194.103286-42.346166-307.373605-42.346165-113.510694 0-225.685968 15.437454-307.627334 42.346165-81.019927 26.534794-127.479186 62.764737-127.479187 99.355243 0 43.401148 64.46072 85.466875 172.416067 112.535837a29.379238 29.379238 0 1 1-14.288993 56.995723c-65.742723-16.492436-117.516954-38.166302-154.000626-64.434012C29.052061 140.15232100000003 18.14168 99.76922300000001 18.14168 72.51330199999995c0-45.684716 29.125509-109.691393 167.915701-155.242566 87.656964-28.764945 206.455921-45.270736 325.949296-45.270736 119.239645 0 237.945123 16.50579 325.682212 45.270736 139.00386 45.577882 168.169431 109.504434 168.169431 155.242566 0 27.576421-10.963798 68.226604-63.192071 105.818675zM474.855295 24.37141399999996l0.961502-1.148461a48.075117 48.075117 0 0 1 36.056338-16.532499A44.843401 44.843401 0 0 1 548.303391 24.678559999999948c19.790923 23.890662 88.271257 108.088889 154.815232 207.404069C799.362337 375.773813 848.198644 486.026082 848.198644 559.7279080000001 848.198644 745.097548 697.135942 896 511.432447 896S174.666249 745.097548 174.666249 559.7279080000001c0-73.701826 48.863015-184.03422 145.280334-327.792175C386.71758 132.13980200000003 455.398226 47.848096000000055 474.855295 24.37141399999996zM511.432447 837.241523c153.306208 0 278.00772-124.487846 278.00772-277.513615 0-116.702347-170.733438-356.183203-278.00772-487.348148-107.274283 131.151591-278.00772 370.605738-278.007721 487.348148C233.424726 712.753678 358.139593 837.241523 511.432447 837.241523zM681.164319 573.3358370000001c0 93.011998-75.87856 168.690245-169.157642 168.690245S342.835681 666.307773 342.835681 573.3358370000001a168.930621 168.930621 0 0 1 169.170996-168.676891c93.279082 0 169.157642 75.664893 169.157642 168.676891z m-247.252999-77.708085a107.982055 107.982055 0 0 0-32.317162 77.708085c0 60.61471 49.530725 109.931768 110.412519 109.931769s110.399165-49.317058 110.399165-109.931769-49.517371-109.918414-110.399165-109.918414a109.330829 109.330829 0 0 0-77.908398 32.050078z"  horiz-adv-x="1024" />

    
    <glyph glyph-name="dingdanliebiao" unicode="&#58990;" d="M95.038319 183.213809H47.51924s-0.074448 665.224569 0 665.22457 665.224569 0.074448 665.224569 0v-47.465902a23.75954 23.75954 0 0 1 47.51908 0V848.438379A47.455267 47.455267 0 0 1 712.743809 895.957458H47.572417A47.455267 47.455267 0 0 1 0.00016 848.385202v-665.128851a47.455267 47.455267 0 0 1 47.572257-47.572256h47.465902a23.75954 23.75954 0 0 1 0 47.519079z m142.610415 522.709874h665.182028a47.465902 47.465902 0 0 0 47.572257-47.561622v-665.182027a47.465902 47.465902 0 0 0-47.572257-47.572257H237.648734a47.444631 47.444631 0 0 0-47.561621 47.572257V658.362061a47.465902 47.465902 0 0 0 47.561621 47.561622z m0-712.743649c0-0.11699 665.224569 0 665.22457 0V658.415239H237.638099v-665.22457z m142.514697 166.274236a23.716998 23.716998 0 0 0 23.75954 23.759539h332.633555a23.75954 23.75954 0 1 0 0-47.519079H403.922971a23.706363 23.706363 0 0 0-23.75954 23.75954z m0 142.514696a23.8978 23.8978 0 0 0 23.75954 23.802082h237.552855a23.75954 23.75954 0 0 0 0-47.51908H403.922971a23.748904 23.748904 0 0 0-23.812717 23.75954z m0 142.514697a23.833988 23.833988 0 0 0 23.685092 23.759539H546.554657a23.75954 23.75954 0 0 0 0-47.519079H403.848523a23.663821 23.663821 0 0 0-23.685092 23.75954z m0 0"  horiz-adv-x="1100" />

    
    <glyph glyph-name="tongxin" unicode="&#58993;" d="M737.557-52.971L557.985 356.527c28.778 16.294 49.019 45.987 49.019 81.393 0 52.475-42.529 95.005-95.004 95.005s-95.004-42.53-95.004-95.005c0-35.405 20.242-65.099 48.947-81.393L286.373-52.97c-15.517-35.548 3.456-64.606 42.248-64.606H695.38c38.791 0 57.764 29.058 42.177 64.606zM457.863 438.793c0 30.686 24.876 55.561 55.561 55.561 30.686 0 55.56-24.875 55.56-55.561s-24.875-55.562-55.56-55.562c-30.685 0-55.561 24.876-55.561 55.562z m-123.92-512.058l178.064 405.934L689.986-73.18l-356.042-0.086zM512 731.89c-162.08 0-293.9-131.892-293.9-293.9 0-85.2 36.957-161.373 95.004-215.046l22.595 51.487c-40.859 43.386-65.906 101.829-65.906 166.128 0 133.862 108.516 242.378 242.378 242.378S754.549 574.422 754.549 440.56c0-64.422-25.141-122.967-66.138-166.378l22.485-51.237C768.943 276.689 805.9 352.79 805.9 437.99c0 162.08-131.82 293.9-293.9 293.9z m0 153.687c-246.856 0-447.657-200.802-447.657-447.658 0-148.466 72.928-279.864 184.578-361.398l23.793 54.272c-93.118 71.784-153.125 184.42-153.125 311.087 0 216.817 175.764 392.581 392.58 392.581s392.582-175.764 392.582-392.58c0-126.784-60.117-239.51-153.381-311.283l23.707-54.076c111.65 81.462 184.578 212.932 184.578 361.398 0 246.855-200.799 447.657-447.655 447.657z"  horiz-adv-x="1024" />

    
    <glyph glyph-name="bingzhuangtu" unicode="&#58995;" d="M512-64c-247.04 0-448 200.96-448 448 0 190.592 119.872 353.344 288 417.984V870.144A511.936 511.936 0 0 1 512-128a511.936 511.936 0 0 1 486.144 352H929.92C865.344 55.872 702.592-64 512-64zM512 896c-10.816 0-21.376-0.96-32-1.6v-64C490.624 831.104 501.184 832 512 832c247.04 0 448-200.96 448-448 0-10.816-0.832-21.376-1.6-32h64c0.64 10.624 1.6 21.184 1.6 32a512 512 0 0 1-512 512zM480 896h64v-512h-64zM480 416h512v-64h-512z"  horiz-adv-x="1024" />

    
    <glyph glyph-name="dashuju" unicode="&#58996;" d="M855 102.5c-15 0-28.3-7.5-36.2-19H128.7c-8.1 0-14.7 6.6-14.7 14.7V629.8c0 13.8-11.2 25-25 25s-25-11.2-25-25v-531.6c0-35.7 29-64.7 64.7-64.7h690.1c7.9-11.5 21.2-19 36.2-19 24.3 0 44 19.7 44 44s-19.7 44-44 44z m40.3 632H205.2c-7.9 11.5-21.2 19-36.2 19-24.3 0-44-19.7-44-44s19.7-44 44-44c15 0 28.3 7.5 36.2 19h690.1c8.1 0 14.7-6.6 14.7-14.7v-531.6h50V669.8c0 35.7-29 64.7-64.7 64.7zM401.3 524.5h-67.6c-30.7 0-55.7-25-55.7-55.7v-265.3h-44c-13.8 0-25-11.2-25-25s11.2-25 25-25h545c13.8 0 25 11.2 25 25s-11.2 25-25 25h-37V570.8c0 30.7-25 55.7-55.7 55.7H571.7c-30.7 0-55.7-25-55.7-55.7v-367.3h-59V468.8c0 30.7-25 55.7-55.7 55.7z m-73.3-321V468.8c0 3.1 2.5 5.7 5.7 5.7h67.6c3.1 0 5.7-2.5 5.7-5.7v-265.3h-79z m238 367.3c0 3.1 2.5 5.7 5.7 5.7h114.6c3.1 0 5.7-2.5 5.7-5.7v-367.3H566V570.8z"  horiz-adv-x="1024" />

    
    <glyph glyph-name="duanxi" unicode="&#58998;" d="M910.222 621.511v49.522H113.778v-54.926l386.39-263.31c0.71-0.484 1.507-0.484 2.332 0.056L907.093 619.72a28.729 28.729 0 0 0 3.13 1.764z m0-67.897L534.102 305.58000000000004c-19.912-13.483-46.08-13.37-65.963 0.199L113.778 547.27v-445.099h796.444V553.614zM113.778 727.98h796.444a56.889 56.889 0 0 0 56.89-56.89v-568.888a56.889 56.889 0 0 0-56.89-56.889H113.778a56.889 56.889 0 0 0-56.89 56.889V671.09a56.889 56.889 0 0 0 56.89 56.889z"  horiz-adv-x="1024" />

    
    <glyph glyph-name="huihua" unicode="&#58988;" d="M257.744969 643.180806c-31.093196 0-56.388131-25.287817-56.388131-56.370844 0-31.102348 25.294935-56.407452 56.388131-56.407452 31.094213 0 56.391182 25.304087 56.391182 56.407452 0 31.084044-25.296969 56.370844-56.391182 56.370844z m156.595734 0c-31.102348 0-56.407452-25.287817-56.407452-56.370844 0-31.102348 25.304087-56.407452 56.407452-56.407452 31.084044 0 56.370844 25.304087 56.370844 56.407452 0 31.084044-25.2868 56.370844-56.370844 56.370844z m155.483265-5.474891c-31.104381 0-56.409486-25.306121-56.409485-56.408469 0-31.083027 25.304087-56.369827 56.409485-56.369827 31.08201 0 56.369827 25.2868 56.369827 56.369827 0 31.103364-25.2868 56.408469-56.369827 56.408469z m369.232842-102.375595h-111.795988V773.187114c0 67.177247-54.743833 121.829561-122.035988 121.829561H122.979654C55.711905 895.016675 0.983325 840.366395 0.983325 773.187114v-392.180814c0-66.468481 53.574419-120.6754 119.865962-121.812274l-1.302626-175.015531L372.575333 258.66118v-138.428123c0-56.819289 46.302697-103.043686 103.213505-103.043687h262.213148l209.994232-144.844647-1.032135 145.144628c53.229696 4.04719 95.305215 48.582546 95.305216 102.743706V432.291718c0 56.816238-46.300663 103.038602-103.213506 103.038602zM354.925315 319.045656L180.52398 198.635662l0.892822 120.409994h-58.052766c-34.274002 0-62.159952 27.893069-62.159953 62.178257V773.709791c0 34.287221 27.88595 62.182324 62.161987 62.182324h581.876051c34.296373 0 62.198594-27.895102 62.198594-62.182324V381.223913c0-34.285188-27.903237-62.179273-62.198594-62.179273h-350.315789v0.001016z m627.123225-199.173592c0-23.925196-19.461084-43.390348-43.381195-43.390348h-52.298233l0.657923-90.264532-130.635758 90.264532h-280.618709c-23.921128 0-43.383229 19.465152-43.383229 43.390348V258.962177h272.631102c67.237243 0 121.938367 54.714344 121.938367 121.963789v94.729661h111.70752c23.921128 0 43.382213-19.465152 43.382212-43.390348v-312.393215z"  horiz-adv-x="1042" />

    
    <glyph glyph-name="paixu" unicode="&#59094;" d="M611.43 52.57h66.29a33.14 33.14 0 0 0 33.14-33.14v-66.29A33.14 33.14 0 0 0 677.71-80h-66.28a33.14 33.14 0 0 0-33.14 33.14v66.29a33.14 33.14 0 0 0 33.14 33.14z m0 265.14h66.29a33.14 33.14 0 0 0 33.14-33.14v-66.29a33.14 33.14 0 0 0-33.14-33.14h-66.29a33.14 33.14 0 0 0-33.14 33.14v66.29a33.14 33.14 0 0 0 33.14 33.14z m0 265.14h66.29a33.14 33.14 0 0 0 33.14-33.14v-66.29a33.14 33.14 0 0 0-33.14-33.14h-66.29a33.14 33.14 0 0 0-33.14 33.14v66.29a33.14 33.14 0 0 0 33.14 33.15z m0 265.14h66.29a33.14 33.14 0 0 0 33.14-33.14v-66.29a33.14 33.14 0 0 0-33.14-33.14h-66.29a33.14 33.14 0 0 0-33.14 33.14v66.3A33.14 33.14 0 0 0 611.43 848zM346.29 52.57h66.29a33.14 33.14 0 0 0 33.14-33.14v-66.29A33.14 33.14 0 0 0 412.57-80h-66.28a33.14 33.14 0 0 0-33.14 33.14v66.29a33.14 33.14 0 0 0 33.14 33.14z m0 265.14h66.29a33.14 33.14 0 0 0 33.14-33.14v-66.29a33.14 33.14 0 0 0-33.14-33.14h-66.29a33.14 33.14 0 0 0-33.14 33.14v66.29a33.14 33.14 0 0 0 33.14 33.14z m0 265.14h66.29a33.14 33.14 0 0 0 33.14-33.14v-66.29a33.14 33.14 0 0 0-33.14-33.14h-66.29a33.14 33.14 0 0 0-33.14 33.14v66.29a33.14 33.14 0 0 0 33.14 33.15z m0 265.14h66.29a33.14 33.14 0 0 0 33.14-33.14v-66.29a33.14 33.14 0 0 0-33.14-33.14h-66.29a33.14 33.14 0 0 0-33.14 33.14v66.3A33.14 33.14 0 0 0 346.29 848z"  horiz-adv-x="1024" />

    
    <glyph glyph-name="charucanshu" unicode="&#58987;" d="M587.76428583 748.95L485.42142832 833.61428584 125.99999999 400.71428584l359.42142833-433.15714336 102.34285751 84.66428585L298.73571415 400.71428584l289.02857168 348.23571416z m-51.17142832-414.64285752h132.94285664V467.18571416H536.59285751v-132.87857168z m664.52142832 132.87857168h-132.94285751v-132.81428584h132.94285751V467.18571416zM802.28571415 334.30714248000004h132.94285751V467.18571416h-132.94285751v-132.87857168zM1252.28571415 834l-102.34285664-84.72857168 289.0285708-348.55714248-289.0285708-348.10714336 102.34285664-84.66428496L1611.64285751 400.71428584 1252.28571415 834z"  horiz-adv-x="1755" />

    
    <glyph glyph-name="daochu1" unicode="&#59000;" d="M198.409481 280.76563c15.36 0 27.83763-12.458667 27.83763-27.83763v-157.240889c0-9.159111 7.471407-16.57363 16.554667-16.57363h576.246518a16.592593 16.592593 0 0 1 16.554667 16.57363v157.165037A27.83763 27.83763 0 0 0 891.259259 252.928v-179.275852A49.98637 49.98637 0 0 0 841.310815 23.703704H220.615111A49.98637 49.98637 0 0 0 170.666667 73.652148v179.275852c0 15.284148 12.382815 27.83763 27.742814 27.83763zM505.647407 735.023407a31.459556 31.459556 0 0 0 44.581926 0l128.246519-128.170666a31.478519 31.478519 0 0 0-22.338371-53.797926c-8.154074 0-16.19437 3.072-22.33837 9.197037l-74.372741 74.391704v-393.386667a31.516444 31.516444 0 1 0-63.070814 0V636.643556l-74.372741-74.467556a31.725037 31.725037 0 0 0-22.338371-9.197037 31.099259 31.099259 0 0 0-22.262518 9.291852 31.478519 31.478519 0 0 0 0 44.581926z"  horiz-adv-x="1024" />

    
    <glyph glyph-name="anquan1" unicode="&#58984;" d="M841.955556 748.088889L518.826667 807.253333h-11.377778L182.044444 748.088889c-13.653333-4.551111-22.755556-15.928889-22.755555-29.582222v-382.293334c0-61.44 18.204444-116.053333 56.888889-168.391111 29.582222-38.684444 70.542222-75.093333 120.604444-106.951111 84.195556-52.337778 166.115556-75.093333 170.666667-77.368889 4.551111-2.275556 11.377778-2.275556 15.928889 0 4.551111 0 86.471111 22.755556 170.666666 77.368889 50.062222 31.857778 91.022222 68.266667 118.328889 106.951111 36.408889 50.062222 56.888889 106.951111 56.888889 166.115556V718.506667c-2.275556 13.653333-13.653333 25.031111-27.306666 29.582222z m-34.133334-414.151111c0-86.471111-50.062222-161.564444-147.911111-223.004445-61.44-40.96-125.155556-61.44-147.911111-68.266666-47.786667 13.653333-295.822222 100.124444-295.822222 293.546666V693.475556l295.822222 54.613333 293.546667-54.613333v-359.537778zM386.844444 443.164444c-11.377778 11.377778-29.582222 11.377778-40.96 0s-11.377778-29.582222 0-40.96l116.053334-116.053333c6.826667-6.826667 13.653333-9.102222 20.48-9.102222 6.826667 0 15.928889 2.275556 20.48 9.102222l191.146666 184.32c11.377778 11.377778 11.377778 29.582222 0 40.96s-29.582222 11.377778-40.96 0l-170.666666-163.84-95.573334 95.573333z"  horiz-adv-x="1024" />

    
    <glyph glyph-name="yongliangfenxi" unicode="&#58981;" d="M34.133333 76.8h955.733334a34.133333 34.133333 0 1 1 0 68.266667H34.133333a34.133333 34.133333 0 0 1 0-68.266667z m170.666667 68.266667V589.141333C204.8 607.4368 220.3648 622.933333 238.728533 622.933333h546.6112c18.705067 0 33.860267-15.1552 33.860267-33.860266v-444.0064H887.466667V589.1072C887.466667 645.461333 841.796267 691.2 785.3056 691.2H238.626133A102.5024 102.5024 0 0 1 136.533333 589.141333V145.066667h68.266667z m207.394133 195.242666a27.409067 27.409067 0 0 1 43.793067 7.0656l47.342933 94.890667 35.771734-142.9504a27.272533 27.272533 0 0 1 49.834666-7.406933l62.464 104.1408 28.910934-28.910934a27.306667 27.306667 0 1 1 38.570666 38.570667l-53.521066 53.6576a27.306667 27.306667 0 0 1-42.769067-5.256533l-46.4896-77.482667-37.717333 150.493867a27.306667 27.306667 0 0 1-50.858667 5.597866l-63.488-126.976-26.862933 26.794667a27.306667 27.306667 0 0 1-31.505067 5.12l-53.6576-26.794667a27.3408 27.3408 0 1 1 24.439467-48.810666l35.976533 18.0224 39.697067-39.799467h0.068266z"  horiz-adv-x="1024" />

    
    <glyph glyph-name="wangluolianjie" unicode="&#59047;" d="M585.985407-45.634783l-7.676162 51.174413c184.227886 30.704648 317.281359 191.904048 317.28136 378.690655 0 184.227886-130.494753 342.868566-312.163918 376.131934l10.234882 51.174413c204.697651-38.38081 353.103448-217.491254 353.103448-427.306347 0-212.373813-150.964518-394.042979-360.77961-429.865068z m-153.523238 2.558721c-204.697651 38.38081-355.662169 217.491254-355.662169 427.306347 0 204.697651 148.405797 383.808096 350.544728 427.306347l10.234882-51.174413c-179.110445-35.822089-309.605197-194.462769-309.605197-376.131934 0-184.227886 133.053473-342.868566 314.722638-376.131934l-10.234882-51.174413zM946.765017 358.643078H330.113343v51.174413H946.765017v-51.174413z m-719.000499 0H76.8v51.174413h150.964518v-51.174413zM486.195302 742.451174h51.174413v-716.441779h-51.174413zM598.77901-25.165017l-28.145927 43.49825c84.437781 53.733133 143.288356 204.697651 143.288356 368.455772s-58.850575 309.605197-143.288356 365.897052l28.145927 43.498251c99.790105-63.968016 168.875562-227.726137 168.875563-406.836582 0-186.786607-66.526737-353.103448-168.875563-414.512743z m-186.786606 7.676161c-79.32034 56.291854-135.612194 173.993003-150.964518 317.28136l51.174413 5.117441c15.352324-127.936032 63.968016-232.843578 130.494752-281.45927l-30.704647-40.939531z m-99.790105 478.48076l-51.174413 5.117441c15.352324 143.288356 74.202899 263.548226 153.523238 319.84008l30.704648-40.93953c-69.085457-48.615692-120.25987-158.64068-133.053473-284.017991zM511.782509 691.276762c-56.291854 0-102.348826 46.056972-102.348826 102.348825s46.056972 102.348826 102.348826 102.348826 102.348826-46.056972 102.348825-102.348826-46.056972-102.348826-102.348825-102.348825z m0 153.523238c-28.145927 0-51.174413-23.028486-51.174413-51.174413s23.028486-51.174413 51.174413-51.174413 51.174413 23.028486 51.174413 51.174413-23.028486 51.174413-51.174413 51.174413zM511.782509-127.513843c-56.291854 0-102.348826 46.056972-102.348826 102.348826s46.056972 102.348826 102.348826 102.348825 102.348826-46.056972 102.348825-102.348825-46.056972-102.348826-102.348825-102.348826z m0 153.523238c-28.145927 0-51.174413-23.028486-51.174413-51.174412s23.028486-51.174413 51.174413-51.174413 51.174413 23.028486 51.174413 51.174413-23.028486 51.174413-51.174413 51.174412zM281.497651 281.881459c-56.291854 0-102.348826 46.056972-102.348825 102.348826s46.056972 102.348826 102.348825 102.348825 102.348826-46.056972 102.348826-102.348825-46.056972-102.348826-102.348826-102.348826z m0 153.523239c-28.145927 0-51.174413-23.028486-51.174413-51.174413s23.028486-51.174413 51.174413-51.174413 51.174413 23.028486 51.174413 51.174413-23.028486 51.174413-51.174413 51.174413z"  horiz-adv-x="1024" />

    
    <glyph glyph-name="jihua1" unicode="&#58985;" d="M51.539851 407.284869V758.908604C51.539851 887.628006 122.701797 896 191.247495 896h575.574566c107.789419 0 141.277393-36.627472 141.277393-139.707645V430.307852a35.057724 35.057724 0 1 0-70.115447 0V756.292355c0 52.32496-17.267237 69.592197-71.161946 69.592198h-575.574566c-58.080706 0-70.115447-7.848744-70.115447-69.592198v-699.061472a64.359701 64.359701 0 0 1 70.115447-70.115447H449.209551a35.057724 35.057724 0 0 0 0-70.115447H164.561765a109.882417 109.882417 0 0 0-106.742919 77.440942 135.521648 135.521648 0 0 0-6.278995 40.813469V407.284869z m0 0M731.764337-127.999477a240.171569 240.171569 0 1 0 240.694818 239.648319 240.171569 240.171569 0 0 0-240.694818-239.648319z m0 418.599684a179.997864 179.997864 0 1 1 179.474615-177.904866 179.997864 179.997864 0 0 1-179.474615 177.904866z m0 14.650989M730.717838 131.009078a21.453234 21.453234 0 0 1 10.464992-16.220738c12.034741-12.557991 55.464458-52.32496 66.975949-66.4527a27.732229 27.732229 0 0 0 0-44.999466 38.720471 38.720471 0 0 0-44.999466 0l-87.905933 89.998932a23.022983 23.022983 0 0 0-5.755746 16.220738V205.310522a31.918226 31.918226 0 0 0 31.394976 30.348477 30.348477 30.348477 0 0 0 29.825228-32.964725m-13.60449-79.010691M689.381119 652.165684a35.057724 35.057724 0 1 0 0-70.115447h-418.599684a35.057724 35.057724 0 1 0 0 70.115447z m0 0M407.872832 442.342593a35.057724 35.057724 0 1 0 0-70.115447H269.734936a35.057724 35.057724 0 1 0 0 70.115447h138.137896z m-68.022449 0"  horiz-adv-x="1024" />

    
    <glyph glyph-name="taocan1" unicode="&#58986;" d="M1001.98944 425.824c11.2-7.456 18.656-22.304 22.4-37.184 0-14.848-7.488-29.728-22.4-37.152l-470.912-252.768c-3.744-3.712-11.2-3.712-18.688-3.712-7.488 0-11.2 0-18.688 3.712L26.56544 351.48800000000006a40.864 40.864 0 0 0-22.432 37.152c0 14.88 7.456 29.76 22.4 37.184l97.184 48.32h7.488l67.264-37.184c3.744 0 3.744-3.712 3.744-7.424s0-7.424-3.744-7.424l-67.264-37.184L512.38944 184.22400000000005l384.96 204.416-63.552 33.472s-3.744 3.712-3.744 7.424 0 7.424 3.744 7.424l67.264 37.184h7.488l93.44-48.32zM22.78944 581.9200000000001C11.58944 589.344 0.38944 604.2239999999999 4.16544 619.104c0 14.848 7.456 29.728 22.4 37.152L497.47744 890.432c11.2 7.424 26.144 7.424 37.376 0l463.392-234.176c14.976-7.424 22.432-22.304 22.432-37.152 0-14.88-7.456-29.76-22.4-37.184l-470.912-252.736c-3.744-3.712-11.2-3.712-18.688-3.712-7.456 0-11.2 0-18.688 3.712L22.82144 581.9200000000001z m975.424-375.392c14.976-7.456 22.432-22.304 22.432-37.184 0-11.136-7.456-26.016-18.688-33.44 0-3.712-3.744-3.712-3.744-3.712l-470.88-256.48c-3.744-3.712-11.2-3.712-18.688-3.712-7.456 0-11.2 0-18.688 3.712L22.82144 128.48000000000002A40.864 40.864 0 0 0 0.38944 165.63199999999995c0 14.88 7.488 29.76 22.4 37.184l93.44 40.864h7.488l67.264-37.152c3.744 0 3.744-3.712 3.744-7.456 0-3.712 0-7.424-3.744-7.424l-59.776-26.016 373.696-200.704 384.96 204.416-56.064 29.76s-3.744 3.712-3.744 7.424 0 7.424 3.744 7.424l67.264 37.184h7.488l89.664-44.608z"  horiz-adv-x="1024" />

    
    <glyph glyph-name="xuanzhong2" unicode="&#59314;" d="M46.545455-81.454545h930.90909V849.454545L46.545455-81.454545z m813.940363 314.647272l-197.678545-197.678545a46.08 46.08 0 0 0-32.814546-13.591273c-11.869091 0-23.784727 4.561455-32.907636 13.684364l-98.722909 98.722909a46.368582 46.368582 0 0 0 0 65.815273 46.405818 46.405818 0 0 0 65.815273 0.046545l65.815272-65.861818 164.677818 164.677818a46.340655 46.340655 0 0 0 65.722182-0.093091c18.199273-18.199273 18.013091-47.802182 0.093091-65.722182z m0 0"  horiz-adv-x="1024" />

    
    <glyph glyph-name="guizeguanli" unicode="&#59101;" d="M651.3 254H264.5c-7 0-12.8-9.6-12.8-21.3 0-11.7 5.7-21.2 12.8-21.2h386.8c7 0 12.7 9.5 12.7 21.2-0.1 11.9-5.7 21.3-12.7 21.3z m0 98.3H264.5c-7 0-12.8-9.5-12.8-21.3 0-11.7 5.7-21.2 12.8-21.2h386.8c7 0 12.7 9.5 12.7 21.2-0.1 11.7-5.7 21.3-12.7 21.3z m0 98H264.5c-7 0-12.8-9.5-12.8-21.2s5.7-21.3 12.8-21.3h386.8c7 0 12.7 9.6 12.7 21.3-0.1 11.7-5.7 21.2-12.7 21.2z m0 0M926 678.8c0 66.8-54.1 121.1-120.8 121.1H212.7c-0.3 0-0.6 0-0.8-0.1-0.3 0-0.6 0.1-0.8 0.1-64.8 0-117.6-54.3-117.6-121.1v-610c0-8.9 3.5-17.4 9.8-23.5l96.1-95.4c12.3-12.2 31.8-12.2 44.2 0l98.1 97.3 101.8-100.9c12.3-12.3 31.9-12.3 44.2 0l101.8 100.9 101.8-100.9c6.2-6.1 14.2-9.2 22-9.2 8 0 15.9 3.1 22.1 9.2l92.1 91.4c6.2 6.3 9.7 14.7 9.8 23.5v501c50.9 14 88.7 61 88.7 116.6zM719 5.4L614.8 108.8c-12.6 12.6-32.6 12.6-45.2 0L465.4 5.4 361.1 108.8c-12.7 12.6-32.6 12.6-45.2 0l-100.4-99.6-65.8 65.4V687.3c0 31.4 24.9 56.9 55.3 56.9 0.3 0 0.6 0.1 0.7 0.1 0.3 0 0.7-0.1 0.9-0.1h0.1c32.3-0.1 58.4-25.6 58.4-56.9 0-31.4-26.3-56.9-58.6-56.9-18 0-32.5-15-32.5-33.5s14.5-33.6 32.5-33.6h574.1v-496.6L719 5.4z m72.9 610.7l-507.2 3.3c30.9 15.6 30.9 46.8 30.9 56.2-0.1 35.1-5.3 50.6-14 67.8l507.8 0.9c31.9 0 65.1-34.3 65.1-66 0-31.8-33.7-60.5-65.5-60.5l-17.1-1.7z m0 0"  horiz-adv-x="1024" />

    
    <glyph glyph-name="chufa" unicode="&#59017;" d="M777.035294 283.467294l-241.242353 147.576471c-8.794353 5.360941-14.456471 1.204706-12.649412-9.155765l51.320471-285.334588c1.867294-10.420706 8.252235-11.806118 14.095059-3.192471 0 0 32.768 48.308706 59.632941 77.824l51.621647-78.96847a15.540706 15.540706 0 0 1 22.046118-4.397177l17.347764 12.288a17.106824 17.106824 0 0 1 4.216471 23.070118l-51.621647 78.908235c34.454588 14.637176 83.124706 27.045647 83.124706 27.045647 9.999059 2.529882 10.842353 8.975059 2.108235 14.336zM347.557647 284.792471l184.741647-103.725177 4.577882-7.951059-0.542117-63.849411-239.736471 140.589176-4.457412 7.830588 0.180706 265.035294 4.517647 7.830589 226.484706 132.336941h9.09553l226.304-132.758588 4.457411-7.830589-0.12047-169.502117-9.035294-9.035294h-37.345883l-9.035294 9.035294 0.120471 142.576941-179.922824 105.532235-180.103529-105.231059z"  horiz-adv-x="1024" />

    
    <glyph glyph-name="zidonghua" unicode="&#58980;" d="M783.358833 218.911293a149.00485 149.00485 0 0 1-59.30193-12.333735l-72.935708 81.635991c7.066897 14.367134 11.400371 30.300986 11.400371 47.368208 0 24.334125-8.366939 46.601517-22.000716 64.702106l75.602461 122.837332a149.671539 149.671539 0 0 1 33.934438-4.200136c82.702692 0 150.004883 67.302191 150.004883 150.004883s-67.302191 150.004883-150.004883 150.004883S600.019532 751.628634 600.019532 668.925942c0-47.00153 22.167388-88.502881 56.135161-116.037111l-70.302289-114.237052a105.736775 105.736775 0 0 1-31.634363 5.266838c-56.968521 0-103.336697-44.334777-107.536834-100.269931l-93.269703-13.700445A150.004883 150.004883 0 0 1 216.67372 418.917803c-82.702692 0-150.004883-67.302191-150.004883-150.004883s67.302191-150.004883 150.004883-150.004883c81.202643 0 147.138123 64.935447 149.538201 145.538071l96.236466 14.167128a108.003516 108.003516 0 0 1 91.73632-51.368339c18.300596 0 35.267815 4.966828 50.40164 13.033758l65.835477-73.735734A148.838178 148.838178 0 0 1 633.35395 68.90641c0-82.702692 67.302191-150.004883 150.004883-150.004883s150.004883 67.302191 150.004883 150.004883-67.302191 150.004883-150.004883 150.004883z m-33.334418 533.350695c45.968163 0 83.336046-37.367883 83.336046-83.336046s-37.367883-83.336046-83.336046-83.336046-83.336046 37.367883-83.336046 83.336046 37.367883 83.336046 83.336046 83.336046z m-533.350695-566.685114c-45.968163 0-83.336046 37.367883-83.336046 83.336046s37.367883 83.336046 83.336046 83.336046 83.336046-37.367883 83.336046-83.336046-37.367883-83.336046-83.336046-83.336046z m295.842963 150.004883c0 22.967414 18.700609 41.668023 41.668024 41.668023s41.668023-18.700609 41.668023-41.668023-18.700609-41.668023-41.668023-41.668023-41.668023 18.667274-41.668024 41.668023z m270.84215-350.011393c-45.968163 0-83.336046 37.367883-83.336046 83.336046s37.367883 83.336046 83.336046 83.336046 83.336046-37.367883 83.336046-83.336046-37.367883-83.336046-83.336046-83.336046z"  horiz-adv-x="1024" />

    
    <glyph glyph-name="tuisong" unicode="&#59298;" d="M858.368 831.552L863.744 832l3.136-0.192 5.12-0.896 2.624-0.768 3.84-1.664 3.84-2.304 2.56-2.048 3.84-3.84 3.008-4.224 1.472-3.008a29.824 29.824 0 0 0 2.688-10.24v-5.312l-64-832a32 32 0 0 0-41.024-28.224l-5.12 2.048-256 128a32 32 0 0 0 23.232 59.328l5.376-2.112 213.376-106.688 51.392 667.968L448 150.016V-32a32 32 0 0 0-26.24-31.488L416-64a32 32 0 0 0-31.488 26.24L384-32v192a32 32 0 0 0 3.264 14.08l2.56 4.288 364.48 520.768-597.952-348.864 149.376-99.648a32 32 0 0 0 11.648-39.296l-2.752-5.12a32 32 0 0 0-39.296-11.584l-5.12 2.752-192 128a32 32 0 0 0-3.008 50.944l4.672 3.328 768 448a32.768 32.768 0 0 0 7.296 3.2l3.2 0.64z"  horiz-adv-x="1024" />

    
    <glyph glyph-name="gonggao1" unicode="&#58974;" d="M881.416828 613.093517h-169.419035l-152.805517 152.858483c-2.365793 24.946759-22.739862 44.702897-48.286897 44.702897-26.571034 0-47.898483-21.168552-48.869517-47.492414l-150.05131-150.068966H142.547862c-49.399172 0-89.582345-41.171862-89.582345-91.806896v-472.134621c0-50.65269 40.183172-91.824552 89.582345-91.824552h738.85131c49.399172 0 89.617655 41.171862 89.617656 91.824552V521.304276c0.017655 50.617379-40.200828 91.789241-89.6 91.789241z m-373.901242 99.910621c1.147586-0.088276 2.171586-0.706207 3.389793-0.706207 1.853793 0 3.389793 0.865103 5.243587 1.05931l100.228413-100.246069H407.622621l99.892965 99.892966z m397.947586-663.834483c0-14.477241-10.78731-26.253241-24.046344-26.253241H142.547862c-13.259034 0-24.011034 11.776-24.011034 26.253241V521.304276c0 14.477241 10.752 26.217931 24.011034 26.217931h738.85131c13.259034 0 24.046345-11.758345 24.046345-26.217931v-472.134621zM282.129655 285.236966m-49.18731 0a49.18731 49.18731 0 1 1 98.374621 0 49.18731 49.18731 0 1 1-98.374621 0ZM518.302897 334.424276a49.204966 49.204966 0 1 1-0.035311-98.409931 49.204966 49.204966 0 0 1 0.035311 98.409931zM754.458483 334.441931a49.152 49.152 0 0 1-49.187311-49.222621 49.204966 49.204966 0 1 1 49.187311 49.222621z"  horiz-adv-x="1024" />

    
    <glyph glyph-name="gonggaoliebiao" unicode="&#58975;" d="M109.696 271.68a32 32 0 0 0-32 32V445.696a32 32 0 0 0 64 0V303.68a32 32 0 0 0-32-32z m677.312-331.712H237.696a160.192 160.192 0 0 0-160 160V120.64a32 32 0 0 0 64 0v-20.672c0-52.928 43.072-96 96-96h549.312c52.928 0 96 43.072 96 96V291.712a32 32 0 0 0 64 0v-191.68a160.192 160.192 0 0 0-160-160.064z m128 512.704a32 32 0 0 0-32 32V667.968c0 52.928-43.072 96-96 96H237.696c-52.928 0-96-43.072-96-96v-15.232a32 32 0 0 0-64 0v15.232c0 88.192 71.808 160 160 160h549.312c88.256 0 160-71.808 160-160v-183.296a32 32 0 0 0-32-32zM913.472 276.992c-60.544 0-109.824 49.344-109.824 109.888s49.28 109.824 109.824 109.824 109.888-49.28 109.888-109.824-49.28-109.888-109.888-109.888z m0 168.512a58.624 58.624 0 1 1 0.192-117.312 58.624 58.624 0 0 1-0.192 117.312z m-727.616 71.168H34.816a32 32 0 0 0 0 64h150.976a32 32 0 0 0 0.064-64z m525.504 0H353.344a32 32 0 0 0 0 64H711.36a32 32 0 0 0 0-64z m0-174.016H353.344a32 32 0 0 0 0 64H711.36a32 32 0 0 0 0-64z m0-161.984H353.344a32 32 0 0 0 0 64H711.36a32 32 0 0 0 0-64z m-525.504 4.992H34.816a32 32 0 0 0 0 64h150.976a32 32 0 0 0 0.064-64z"  horiz-adv-x="1024" />

    
    <glyph glyph-name="xiaoxiliebiao" unicode="&#59011;" d="M697.579295 255.92064h-244.971931c-17.329204 0-31.507644-14.335978-31.507644-31.980258 0-17.72305 14.17844-32.059028 31.507644-32.059028h244.971931c17.329204 0 31.507644 14.335978 31.507644 32.059028a31.743951 31.743951 0 0 1-31.507644 31.980258z m0 190.857553h-244.971931c-17.329204 0-31.507644-14.335978-31.507644-31.980259 0-17.72305 14.17844-31.980258 31.507644-31.980258h244.971931c17.329204 0 31.507644 14.257209 31.507644 31.980258a31.743951 31.743951 0 0 1-31.507644 31.980259zM174.473638 895.998425C100.194368 896.313501 39.778461 835.424979 39.384615 759.964172V-128h63.015288l139.500093 102.005997L376.989019-128 511.999273-25.994003 647.167065-128l135.089023 102.005997L921.598643-128H984.61393V759.964172C984.298854 835.34621 923.961716 896.234732 849.761215 895.998425H174.473638z m746.731159-954.839147l-136.270559 103.108765-136.506867-108.85891-136.349329 108.85891-136.428098-108.85891-136.349328 108.85891-136.27056-104.211532V763.823859a68.13528 68.13528 0 0 0 68.13528 68.13528h681.904181a68.13528 68.13528 0 0 0 68.214049-68.13528v-822.664581z m-223.625502 698.682002h-244.971931c-17.329204 0-31.507644-14.257209-31.507644-31.980258 0-17.644281 14.17844-31.980258 31.507644-31.980259h244.971931c17.329204 0 31.507644 14.335978 31.507644 31.980259a31.743951 31.743951 0 0 1-31.507644 32.059027z m-374.15327-0.708922c17.329204 0 31.507644-14.335978 31.507643-31.980258a31.743951 31.743951 0 0 0-31.507643-32.059028c-17.407973 0-31.507644 14.335978-31.507644 32.059028 0 17.644281 14.099671 31.980258 31.507644 31.980258z m0-192.039089c17.329204 0 31.507644-14.335978 31.507643-31.980258a31.743951 31.743951 0 0 0-31.507643-31.980259c-17.407973 0-31.507644 14.335978-31.507644 31.980259 0 17.644281 14.099671 31.980258 31.507644 31.980258z m0-192.039089c17.329204 0 31.507644-14.257209 31.507643-31.980259a31.743951 31.743951 0 0 0-31.507643-31.980258c-17.407973 0-31.507644 14.335978-31.507644 31.980258 0 17.72305 14.099671 31.980258 31.507644 31.980259z"  horiz-adv-x="1024" />

    
    <glyph glyph-name="xiaoxizhongxin" unicode="&#59018;" d="M512 895.998537c68.754187 0 135.533521-12.580553 198.436288-37.302804 60.85477-23.990823 115.565549-58.367917 162.523196-102.180425a476.15932 476.15932 0 0 0 110.299271-152.356354c26.916533-59.391915 40.594228-122.514111 40.521085-187.61116 0-65.09705-13.604552-128.07296-40.594227-187.464876a478.134174 478.134174 0 0 0-110.299271-152.429496 513.315838 513.315838 0 0 0-162.59634-102.180426c-62.902767-24.649108-129.6821-37.302804-198.436288-37.302803-54.710779 0-108.397559 8.045703-159.816914 23.844537l-148.26036-84.333594a36.425091 36.425091 0 0 0-34.01138-0.731427 35.839949 35.839949 0 0 0-19.455972 27.794246l-23.11311 196.607719C45.12981 187.976691 0.000731 299.738818 0.000731 416.620936c0 65.023907 13.677695 128.146103 40.594228 187.538018a478.134174 478.134174 0 0 0 110.299271 152.356354A513.315838 513.315838 0 0 0 313.490569 858.695733 540.74437 540.74437 0 0 0 511.926857 895.998537z m0-71.972468c-59.757629 0-117.613546-10.971413-172.031754-32.329097a442.879367 442.879367 0 0 1-139.995229-87.844446 405.649706 405.649706 0 0 1-93.769009-129.462672 378.733173 378.733173 0 0 1-34.230808-157.768918c0-101.887854 40.959941-199.460286 115.126693-274.651036a35.839949 35.839949 0 0 0 10.0937-21.065113l18.212545-154.696922 114.834122 65.243336a35.986234 35.986234 0 0 0 29.403386 2.852567 470.088471 470.088471 0 0 1 152.136926-25.014821c59.757629 0 117.613546 10.825127 172.104897 32.329096a442.879367 442.879367 0 0 1 139.995228 87.844446 405.649706 405.649706 0 0 1 93.769009 129.462673 380.415457 380.415457 0 0 1 0.146286 315.391549 406.088563 406.088563 0 0 1-93.769009 129.462672 441.050798 441.050798 0 0 1-139.995229 87.917589A468.845045 468.845045 0 0 1 511.926857 824.026069zM291.913457 471.039144a54.930207 54.930207 0 1 0 0-109.933557 54.930207 54.930207 0 0 0 0 109.933557z m439.953657 0a55.00335 55.00335 0 1 0-0.073142-110.079843 55.00335 55.00335 0 0 0 0 110.079843z m-220.0134 0a55.00335 55.00335 0 1 0 0-110.079843 55.00335 55.00335 0 0 0 0 110.079843z"  horiz-adv-x="1024" />

    
    <glyph glyph-name="fangkuang" unicode="&#58972;" d="M896 768v-768H128V768h768m0 64H128c-32 0-64-32-64-64v-768c0-32 32-64 64-64h768c32 0 64 32 64 64V768c0 32-32 64-64 64z"  horiz-adv-x="1024" />

    
    <glyph glyph-name="huabi" unicode="&#59068;" d="M1.704-75.096l77.824 281.16L746.568 872.88c30.992 30.992 70.944 30.64 101.76 0l152.56-152.544c30.64-30.648 30.992-70.592 0-101.76L334.192-48.4l-281.52-77.824c-38.744-8.096-58.888 12.048-50.968 51.136z m668.76 769.952l152.56-152.368 101.76 101.752c26.336 26.168 24.616 26 0 50.792l-101.76 101.584c-24.112 26-26.352 26-50.8 0l-101.76-101.76z m-483.488-483.28l152.552-152.552L772.056 491.52 619.496 644.08 186.976 211.568zM78.672-49.28l210.064 57.504-152.56 152.544-57.504-210.048z"  horiz-adv-x="1024" />

    
    <glyph glyph-name="lajitong" unicode="&#59044;" d="M642.6624 890.1632c56.32 0 102.0928-45.8752 102.0928-102.0928v-83.7632H940.032a40.8576 40.8576 0 1 0-0.1024-81.6128h-38.2976v-571.392c0-95.5392-77.824-173.4656-173.4656-173.4656H295.936c-95.6416 0-173.4656 77.824-173.4656 173.568V622.592H84.1728a40.8576 40.8576 0 1 0 0 81.7152h195.1744v83.7632c0 56.32 45.7728 102.0928 102.0928 102.0928zM820.0192 622.592H204.1856v-571.1872c0-50.688 41.2672-91.8528 91.8528-91.8528H728.064a91.9552 91.9552 0 0 1 91.8528 91.8528V622.592zM398.2336 463.4624a37.888 37.888 0 0 0 37.7856-37.7856V135.168a37.888 37.888 0 0 0-75.5712 0V425.6768a37.888 37.888 0 0 0 37.7856 37.7856z m227.6352 0a37.888 37.888 0 0 0 37.7856-37.7856V135.168a37.888 37.888 0 0 0-75.5712 0V425.6768a37.888 37.888 0 0 0 37.7856 37.7856z m16.7936 345.088H381.44a20.48 20.48 0 0 1-20.48-20.48v-83.6608h302.08v83.7632a20.48 20.48 0 0 1-20.3776 20.48z"  horiz-adv-x="1024" />

    
    <glyph glyph-name="yuan" unicode="&#58973;" d="M503.172414 869.517241c-273.019586 0-494.344828-221.325241-494.344828-494.344827s221.325241-494.344828 494.344828-494.344828 494.344828 221.325241 494.344827 494.344828-221.325241 494.344828-494.344827 494.344827z m0-70.620689c234.001655 0 423.724138-189.722483 423.724138-423.724138s-189.722483-423.724138-423.724138-423.724138-423.724138 189.722483-423.724138 423.724138 189.722483 423.724138 423.724138 423.724138z"  horiz-adv-x="1024" />

    
    <glyph glyph-name="baohudi_baocun" unicode="&#58978;" d="M866.304 870.4H157.696C88.064 870.4 25.6 814.592 25.6 738.304v-708.608C25.6-39.936 81.408-102.4 157.696-102.4h708.608c69.632 0 132.096 55.808 132.096 132.096V738.304C998.4 814.592 942.592 870.4 866.304 870.4zM289.792 794.112h444.928v-166.912c0-27.648-27.648-55.808-55.808-55.808H345.088c-27.648 0-55.808 27.648-55.808 55.808 0.512 0 0.512 166.912 0.512 166.912z m632.32-764.416c0-27.648-27.648-55.808-55.808-55.808H157.696c-27.648 0-55.808 27.648-55.808 55.808V738.304c0 27.648 27.648 55.808 55.808 55.808h55.808v-166.912c0-69.632 55.808-132.096 132.096-132.096h333.312c69.632 0 132.096 55.808 132.096 132.096V794.112h55.808c27.648 0 55.808-27.648 55.808-55.808l-0.512-708.608zM623.104 606.208c20.992 0 34.816 13.824 34.816 34.816V717.312c0 20.992-13.824 34.816-34.816 34.816s-34.816-13.824-34.816-34.816v-76.288c0-13.824 20.992-34.816 34.816-34.816z"  horiz-adv-x="1024" />

    
    <glyph glyph-name="dianziweilan" unicode="&#58971;" d="M219.4432 896H43.8784A43.8784 43.8784 0 0 1 0 852.1216v-175.5648c0-24.2688 19.6608-43.8784 43.8784-43.8784h175.5648a43.8784 43.8784 0 0 1 43.8784 43.8784V852.1216A43.8784 43.8784 0 0 1 219.4432 896zM51.2 691.2h153.6V844.8H51.2v-153.6z m928.9216 204.8h-175.5648a43.8784 43.8784 0 0 1-43.8784-43.8784v-175.5648c0-24.2688 19.6608-43.8784 43.8784-43.8784h175.5648A43.8784 43.8784 0 0 1 1024 676.5568V852.1216A43.8784 43.8784 0 0 1 980.1216 896zM819.2 691.2h153.6V844.8h-153.6v-153.6z m160.9216-555.8784h-175.5648a43.8784 43.8784 0 0 1-43.8784-43.8784v-175.5648c0-24.2176 19.6608-43.8784 43.8784-43.8784h175.5648a43.8784 43.8784 0 0 1 43.8784 43.8784v175.5648a43.8784 43.8784 0 0 1-43.8784 43.8784zM819.2-76.8h153.6v153.6h-153.6v-153.6zM219.4432 135.3216H43.8784a43.8784 43.8784 0 0 1-43.8784-43.8784v-175.5648c0-24.2176 19.6608-43.8784 43.8784-43.8784h175.5648a43.8784 43.8784 0 0 1 43.8784 43.8784v175.5648a43.8784 43.8784 0 0 1-43.8784 43.8784zM51.2-76.8h153.6v153.6H51.2v-153.6z m212.1216 36.6592h497.3056V47.616H263.3216v-87.7568z m585.0624 175.5136h87.7568V632.6784H848.384v-497.3056z m-760.6272 0h87.7568V632.6784H87.7568v-497.3056zM263.3216 720.4864h497.3056V808.2432H263.3216v-87.7568z"  horiz-adv-x="1024" />

    
    <glyph glyph-name="zengzhi" unicode="&#58966;" d="M108.8-128C51.2-128 0-76.8 0-19.2V704c0 57.6 51.2 108.8 108.8 108.8h812.8c32 0 57.6-12.8 76.8-32 12.8-19.2 25.6-51.2 25.6-76.8v-723.2c0-57.6-51.2-108.8-108.8-108.8H108.8z m0 870.4c-25.6 0-38.4-12.8-38.4-38.4v-723.2c0-19.2 19.2-38.4 38.4-38.4h812.8c19.2 0 38.4 19.2 38.4 38.4V704c0 12.8-6.4 19.2-12.8 25.6-6.4 6.4-19.2 12.8-25.6 12.8H108.8zM198.4 140.8c-6.4 0-19.2 6.4-25.6 12.8-6.4 6.4-12.8 12.8-12.8 25.6s6.4 19.2 12.8 25.6L384 416c6.4 6.4 12.8 12.8 25.6 12.8 6.4 0 19.2-6.4 25.6-12.8l115.2-108.8 166.4 166.4H614.4c-19.2 0-38.4 12.8-38.4 32s19.2 38.4 32 38.4h198.4c12.8-6.4 25.6-19.2 25.6-32v-192c0-19.2-12.8-32-32-32S768 300.8 768 320V422.4l-192-192c-6.4-6.4-12.8-12.8-25.6-12.8-6.4 0-19.2 6.4-25.6 12.8L409.6 339.2l-185.6-192c-6.4-6.4-12.8-6.4-25.6-6.4z"  horiz-adv-x="1024" />

    
    <glyph glyph-name="liuliang2" unicode="&#58967;" d="M511.953-62.929c-71.366 0-139.586 16.322-202.763 48.512-60.226 30.686-113.629 75.5-154.437 129.595-12.254 16.242-9.019 39.343 7.223 51.596 16.242 12.254 39.341 9.019 51.595-7.224 34.115-45.222 78.747-82.679 129.069-108.32 52.72-26.862 109.685-40.482 169.314-40.482 99.767 0 193.563 38.852 264.11 109.398C846.608 190.69 885.46 284.488 885.46 384.255c0 99.767-38.852 193.562-109.398 264.109-70.545 70.546-164.342 109.398-264.109 109.398-99.767 0-193.563-38.852-264.11-109.398s-109.398-164.34-109.398-264.108c0-36.192 5.159-71.955 15.331-106.295 5.779-19.506-5.35-40.006-24.857-45.786-19.508-5.78-40.006 5.35-45.786 24.858-12.187 41.137-18.366 83.941-18.366 127.223 0 60.353 11.829 118.92 35.157 174.075 22.525 53.255 54.763 101.075 95.82 142.133 41.057 41.057 88.877 73.295 142.132 95.82C393.031 819.612 451.6 831.44 511.953 831.44s118.921-11.829 174.076-35.157c53.254-22.525 101.074-54.763 142.132-95.82 41.057-41.058 73.295-88.878 95.82-142.133 23.328-55.154 35.157-113.722 35.157-174.075 0-60.354-11.83-118.92-35.157-174.076-22.525-53.255-54.763-101.075-95.82-142.133-41.057-41.056-88.878-73.295-142.132-95.82-55.155-23.328-113.724-35.156-174.076-35.156zM750.116 507.023c-14.327 14.327-37.771 14.327-52.098 0l-157.93-157.996L423.147 465.97c-7.32 7.32-17.018 10.89-26.666 10.73-9.648 0.16-19.347-3.41-26.666-10.73L257.907 354.46c-14.327-14.327-14.327-37.771 0-52.098s37.771-14.328 52.098 0l86.43 86.122 116.642-116.641c7.408-7.41 17.255-10.976 27.017-10.723 9.763-0.253 19.608 3.314 27.017 10.723l183.004 183.081c14.327 14.327 14.327 37.77 0.001 52.098z"  horiz-adv-x="1024" />

    
    <glyph glyph-name="xinxiduanxinxiaoxitixingyoujiansixinyouxiang" unicode="&#58968;" d="M1244.902 735.161V806.56H96.892v-79.166l556.95-379.55c1.024-0.707 2.189-0.707 3.354 0.105l583.186 384.636c1.412 0.953 2.966 1.765 4.52 2.542v0.035z m0-97.845L702.746 279.8a84.604 84.604 0 0 0-95.055 0.283L96.891 628.17v-641.589h1148.01v650.77zM96.892 888.585h1148.01a81.99 81.99 0 0 0 81.99-81.99v-819.978a81.99 81.99 0 0 0-81.99-81.99H96.892a81.99 81.99 0 0 0-81.991 81.99V806.63a81.99 81.99 0 0 0 81.99 81.99z"  horiz-adv-x="1341" />

    
    <glyph glyph-name="liuliang3" unicode="&#58969;" d="M517.632 256a32 32 0 0 1 32 32V672a32 32 0 1 1-64 0v-384a32 32 0 0 1 32-32z m192 0a32 32 0 0 1 32 32V576a32 32 0 1 1-64 0v-288a32 32 0 0 1 32-32z m-384 0a32 32 0 0 1 32 32V416a32 32 0 1 1-64 0v-128a32 32 0 0 1 32-32zM5.632 896v-64h64v-608c0-75.84 52.608-128 128-128h192l-128-224 96.384 0.448L485.632 96h64l127.616-223.552 96.384-0.448-128 224h192c75.392 0 128 52.16 128 128V832h64V896h-1024z m896-672c0-39.296-25.408-64-64-64h-640c-38.592 0-64 24.704-64 64l-0.512 608.32h768.96L901.632 224z"  horiz-adv-x="1088" />

    
    <glyph glyph-name="weizhi" unicode="&#58970;" d="M498.688 761.14a166.537 166.537 0 1 1 166.23-166.537 166.673 166.673 0 0 1-166.23 166.536z m-0.683-555.248S258.731 472.747 258.731 604.98a239.275 239.275 0 1 0 478.549 0c0-132.232-239.275-399.087-239.275-399.087z m0 319.25a79.838 79.838 0 1 0 79.872 79.837 79.906 79.906 0 0 0-79.872-79.838z m331.776-43.725l82.944 29.696v-442.54S742.4 18.024 650.24-7.918l-322.219 90.453-215.381-73.318V449.843l79.872 21.777a520.329 520.329 0 0 0-3.072 61.44L50.859 501.111v-577.228L97.28-61.03l230.4 75.093 322.56-90.351 322.56 90.385V591.292l-138.923-38.605c-0.682-15.599-1.024-47.582-4.096-71.27z m0 0"  horiz-adv-x="1024" />

    
    <glyph glyph-name="peizhiguanli" unicode="&#59253;" d="M897.188402 310.428796L1023.853735 91.397229 897.188402-128h-253.038138l-126.665333 219.250964 126.665333 219.104699h253.038138zM689.346093 896L1023.853735 561.419226v-250.844165l-63.259534 109.625482H580.744465l-189.851735-328.949579L517.411798-128H146.264819c-80.811313 0-146.264819 65.380374-146.264819 146.264819V749.588916a146.264819 146.264819 0 0 0 146.264819 146.264819h543.081274z m81.32324-716.697615a88.051421 88.051421 0 1 1 0-176.02971 88.051421 88.051421 0 0 1 0 176.02971zM365.515783 420.493072H212.376518a36.566205 36.566205 0 0 1 0-73.132409h152.993001a36.566205 36.566205 0 1 1 0 73.132409z m203.746894 258.523069H212.44965a36.566205 36.566205 0 0 1 0-73.13241h356.886159a36.566205 36.566205 0 0 1 0 73.13241z"  horiz-adv-x="1024" />

    
    <glyph glyph-name="zengjia" unicode="&#59092;" d="M512 896A512 512 0 0 1 0 384a512 512 0 0 1 512-512 512 512 0 0 1 512 512A512 512 0 0 1 512 896z m311.04-823.04a437.76 437.76 0 0 0-139.84-94.336C628.992-44.416 571.392-56 512-56a437.44 437.44 0 0 0-311.04 128.832 437.76 437.76 0 0 0-94.336 139.84A436.608 436.608 0 0 0 72 384a437.44 437.44 0 0 0 128.832 311.04 437.76 437.76 0 0 0 139.84 94.336A436.608 436.608 0 0 0 512 824a437.44 437.44 0 0 0 311.04-128.832 437.76 437.76 0 0 0 94.336-139.84C940.416 500.992 952 443.392 952 384a437.44 437.44 0 0 0-128.896-311.04z m-91.008 346.56H548.48V603.008a35.968 35.968 0 1 1-72 0V419.52H291.968a35.968 35.968 0 1 1 0-72H476.48v-182.528a35.968 35.968 0 1 1 72 0V347.52h183.488a35.968 35.968 0 1 1 0 72z"  horiz-adv-x="1024" />

    
    <glyph glyph-name="g" unicode="&#59131;" d="M586.8544 594.432l12.4928-45.9776c69.2224 18.8416 140.5952-21.9136 159.5392-91.136l45.9776 12.4928c-25.8048 94.72-123.4944 150.4256-218.0096 124.6208z m-26.2144 96.1536l12.4928-45.9776c122.2656 33.3824 248.4224-38.7072 281.8048-160.9728l45.9776 12.4928c-40.3456 147.6608-192.6144 234.7008-340.2752 194.4576z m0 0M258.4576 70.3488v72.192H121.7536v64.6144L258.4576 406.528H328.704v-208.896h47.5136v-55.0912H328.704v-72.192h-70.2464z m0 127.2832V317.3376L176.8448 197.632h81.6128z m0 0M651.6736 199.5776h-68.4032v58.88h142.4384v-176.64c-25.3952-7.5776-51.3024-11.3664-77.824-11.3664-20.2752-2.56-46.8992-3.7888-79.7696-3.7888-107.6224 6.3488-162.7136 65.8432-165.2736 178.4832 2.56 115.2 57.6512 176.64 165.2736 184.2176 110.1824 0 164.5568-37.9904 163.328-113.9712h-79.7696c0 39.2192-23.4496 58.88-70.2464 58.88-64.6144-1.2288-97.4848-44.3392-98.7136-129.1264 1.2288-83.5584 34.2016-126.0544 98.7136-127.2832 18.944 0 41.1648 2.56 66.4576 7.5776-1.2288-1.2288 0-1.2288 3.7888 0v74.1376z m0 0"  horiz-adv-x="1024" />

    
    <glyph glyph-name="sandianshuzhuode" unicode="&#59157;" d="M0 384c0 59.733333 46.933333 106.666667 106.666667 106.666667s106.666667-46.933333 106.666666-106.666667-46.933333-106.666667-106.666666-106.666667-106.666667 46.933333-106.666667 106.666667zM810.666667 384c0 59.733333 46.933333 106.666667 106.666666 106.666667s106.666667-46.933333 106.666667-106.666667-46.933333-106.666667-106.666667-106.666667-106.666667 46.933333-106.666666 106.666667zM405.333333 384c0 59.733333 46.933333 106.666667 106.666667 106.666667s106.666667-46.933333 106.666667-106.666667-46.933333-106.666667-106.666667-106.666667-106.666667 46.933333-106.666667 106.666667z"  horiz-adv-x="1024" />

    
    <glyph glyph-name="iconjian" unicode="&#58965;" d="M903.053 325.25h-782.007c-32.391 0-58.649 26.256-58.649 58.647s26.256 58.661 58.649 58.661h782.009c32.406 0 58.649-26.27 58.649-58.661-0.001-32.393-26.245-58.647-58.649-58.647z"  horiz-adv-x="1024" />

    
    <glyph glyph-name="shuaxin" unicode="&#59307;" d="M779.4688 140.544l-37.5296-67.5328-55.6544-100.5568-67.2768 37.2736 21.1456 38.0928a358.4512 358.4512 0 0 0-420.096 539.648L284.8256 522.752a268.9024 268.9024 0 0 1 339.5584-384.6144l-50.5344 28.0576 37.2736 67.2256 100.864-55.9104 0.2048 0.3072 67.2768-37.2736z m-11.0592 496.64a358.5536 358.5536 0 0 0 55.1936-435.712l-66.1504 66.1504a268.9024 268.9024 0 0 1-350.1056 362.496l49.5104-27.4944-37.2736-67.2256-168.0896 93.184-0.256 0.1536 93.184 168.0896 67.2256-37.2736-22.1184-39.936a358.4512 358.4512 0 0 0 378.88-82.432z"  horiz-adv-x="1024" />

    
    <glyph glyph-name="quanping" unicode="&#58964;" d="M168.448 701.44v-199.168c0-15.36 12.288-27.648 27.648-27.648 15.36 0 27.648 12.288 27.648 27.648V630.784l159.744-175.616c10.24-11.264 27.648-11.776 38.912-2.048 11.264 10.24 11.776 27.648 2.048 38.912L257.536 674.816h137.728c15.36 0 27.648 12.288 27.648 27.648 0 15.36-12.288 27.648-27.648 27.648H196.608c-6.656 0-13.312-2.56-17.92-6.656-0.512-0.512-1.024-0.512-1.536-1.024-5.632-6.144-8.704-13.312-8.704-20.992z m687.104 0v-199.168c0-15.36-12.288-27.648-27.648-27.648s-27.648 12.288-27.648 27.648V630.784l-159.744-175.616c-10.24-11.264-27.648-11.776-38.912-2.048-11.264 10.24-11.776 27.648-2.048 38.912l165.888 182.784h-137.728c-15.36 0-27.648 12.288-27.648 27.648 0 15.36 12.288 27.648 27.648 27.648h199.168c6.656 0 13.312-2.56 17.92-6.656 0.512-0.512 1.024-0.512 1.536-1.024 6.144-6.144 9.216-13.312 9.216-20.992zM168.448 66.56v199.168c0 15.36 12.288 27.648 27.648 27.648 15.36 0 27.648-12.288 27.648-27.648v-128.512l159.744 175.616c10.24 11.264 27.648 11.776 38.912 2.048 11.264-10.24 11.776-27.648 2.048-38.912l-165.888-182.784h137.728c15.36 0 27.648-12.288 27.648-27.648s-12.288-27.648-27.648-27.648h-199.68c-6.656 0-13.312 2.56-17.92 6.656-0.512 0.512-1.024 0.512-1.536 1.024-5.632 6.144-8.704 13.312-8.704 20.992z m687.104 0v199.168c0 15.36-12.288 27.648-27.648 27.648s-27.648-12.288-27.648-27.648v-128.512l-159.744 175.616c-10.24 11.264-27.648 11.776-38.912 2.048-11.264-10.24-11.776-27.648-2.048-38.912l165.888-182.784h-137.728c-15.36 0-27.648-12.288-27.648-27.648s12.288-27.648 27.648-27.648h199.168c6.656 0 13.312 2.56 17.92 6.656 0.512 0.512 1.024 0.512 1.536 1.024 6.144 6.144 9.216 13.312 9.216 20.992z"  horiz-adv-x="1024" />

    
    <glyph glyph-name="tuichuquanping" unicode="&#59170;" d="M216.3 795.2c-31.6 0-58.8-11.5-81.8-34.5-22.5-22.5-33.7-49.7-33.7-81.8v-589.8c0-32.1 11.2-59.6 33.7-82.6 23-22.5 50.3-33.7 81.8-33.7h590.6c32.1 0 59.4 11.2 81.8 33.7 23 23 34.5 50.6 34.5 82.6V678.9c0 32.1-11.5 59.4-34.5 81.8-22.5 23-49.7 34.5-81.8 34.5H216.3z m643.5-706.1c0-15-5.3-27.5-16-37.7-10.2-10.2-22.5-15.2-36.9-15.2H216.3c-14.4 0-26.7 5.1-36.9 15.2-10.2 10.2-15.2 22.7-15.2 37.7V678.9c0 14.4 5.1 27 15.2 37.7 10.2 10.2 22.5 15.2 36.9 15.2h590.6c14.4 0 26.8-5.1 36.9-15.2 10.7-10.7 16-23.3 16-37.7v-589.8zM575 352.3c-3.7 0-7.5-0.8-11.2-2.4h-0.8c-8-3.2-13.6-9.1-16.9-17.7h-0.8c-1.1-3.7-1.6-7.5-1.6-11.2v-169.3c0-8.6 2.9-16 8.8-22.5 6.4-5.9 13.9-8.8 22.5-8.8s16.1 2.9 22.5 8.8c5.9 6.4 8.8 13.9 8.8 22.5V244l104.3-103.5c8.6-8.6 18.7-11.5 30.5-8.8 11.8 3.2 19.3 10.7 22.5 22.5 3.2 11.8 0.5 21.9-8 30.5L651.2 288.9h92.3c9.1 0 16.6 3.2 22.5 9.6 6.4 5.9 9.6 13.4 9.6 22.5 0 8.6-3.2 15.8-9.6 21.7-5.9 6.4-13.4 9.6-22.5 9.6H575zM448.2 647.6c-8.6 0-15.8-3.2-21.7-9.6-6.4-5.9-9.6-13.4-9.6-22.5v-92.3L312.6 627.5c-8.6 9.1-18.7 12-30.5 8.8-11.8-3.2-19.3-10.7-22.5-22.5-3.2-12.3-0.3-22.7 8.8-31.3L372 479.1h-92.3c-12.3 0-21.4-5.3-27.3-16-6.4-10.7-6.4-21.4 0-32.1 5.9-10.7 15-15.8 27.3-15.2h168.5c4.3 0 8.3 0.8 12 2.4 8.6 3.2 14.4 8.8 17.7 16.9v0.8c1.6 3.7 2.4 7.5 2.4 11.2V615.5c0 9.1-3.2 16.6-9.6 22.5-5.9 6.4-13.4 9.6-22.5 9.6z"  horiz-adv-x="1024" />

    
    <glyph glyph-name="jihua" unicode="&#58957;" d="M796.450133 895.938564H72.66892C32.602204 895.938564 0 863.33636 0 823.259404v-852.285502c0-40.076955 32.602204-72.679159 72.66892-72.67916h549.517109a276.975381 276.975381 0 0 0-58.395216 61.436314 273.104894 273.104894 0 0 0-48.862349 156.150631c0 151.50195 123.251485 274.753435 274.753435 274.753435 6.061716 0 12.061996-0.266224 18.031558-0.655321 21.216007-1.382317 41.786933-5.16065 61.436314-11.099494V823.259404C869.139532 863.33636 836.527088 895.938564 796.450133 895.938564z m-6.778473-443.867128c-185.373838 0-336.189749-150.815911-336.189749-336.189749a333.988281 333.988281 0 0 1 38.602484-156.150631H72.66892A11.253085 11.253085 0 0 0 61.436314-29.026098V823.259404C61.436314 829.464472 66.474092 834.50225 72.66892 834.50225h723.791452a11.263324 11.263324 0 0 0 11.253085-11.242846v-371.679459a340.17287 340.17287 0 0 1-18.041797 0.491491zM783.732816-128c-132.446453 0-240.195508 107.749055-240.195508 240.205748 0 132.446453 107.749055 240.195508 240.195508 240.195508C916.189509 352.401256 1023.938564 244.652201 1023.938564 112.205748 1023.938564-20.250945 916.189509-128 783.732816-128z m0 418.964942c-98.564326 0-178.759194-80.194868-178.759194-178.759194C604.973622 13.631182 685.16849-66.563686 783.732816-66.563686 882.307382-66.563686 962.50225 13.631182 962.50225 112.205748c0 98.564326-80.194868 178.759194-178.769434 178.759194zM884.00712 117.960282h-97.489191v97.489191a10.239386 10.239386 0 0 1-10.239386 10.239386H750.034998a10.239386 10.239386 0 0 1-10.239386-10.239386V81.477351a10.239386 10.239386 0 0 1 10.239386-10.239385H884.00712a10.239386 10.239386 0 0 1 10.239385 10.239385v26.243546a10.239386 10.239386 0 0 1-10.239385 10.239385zM581.945243 617.345359H143.351399a10.239386 10.239386 0 0 1-10.239386-10.239385v-32.428135a10.239386 10.239386 0 0 1 10.239386-10.239385h438.593844a10.239386 10.239386 0 0 1 10.239386 10.239385v32.428135a10.239386 10.239386 0 0 1-10.239386 10.239385zM501.729896 399.256685H143.351399a10.239386 10.239386 0 0 1-10.239386-10.239386v-32.428134a10.239386 10.239386 0 0 1 10.239386-10.239386h358.378497a10.239386 10.239386 0 0 1 10.239386 10.239386v32.428134a10.239386 10.239386 0 0 1-10.239386 10.239386zM401.895886 203.50011H143.351399a10.239386 10.239386 0 0 1-10.239386-10.239386v-32.428134a10.239386 10.239386 0 0 1 10.239386-10.239386h258.544487a10.239386 10.239386 0 0 1 10.239386 10.239386v32.428134a10.239386 10.239386 0 0 1-10.239386 10.239386z"  horiz-adv-x="1024" />

    
    <glyph glyph-name="tongxinwang" unicode="&#58962;" d="M511.96 895.999A512.59 512.59 0 0 1 0 384.039c0-282.288 229.673-511.96 511.96-511.96s511.96 229.672 511.96 511.96c0 282.208-229.673 511.96-511.96 511.96z m-0.158-70.965c66.477 0 129.093-15.123 185.409-41.587-46.313-14.257-89.553-30.482-129.093-48.755a81.914 81.914 0 0 1-57.418 23.55 67.973 67.973 0 0 1-34.026-7.877 864.03 864.03 0 0 1-81.677 58.443 403.266 403.266 0 0 0 116.805 16.226z m-182.65-338.052l2.204 4.096A728.086 728.086 0 0 0 464.31 608.434a72.147 72.147 0 0 1 46.548-14.885 69.785 69.785 0 0 1 34.42 8.033c62.617-72.067 126.179-163.59 161.307-283.232a59.072 59.072 0 0 1-32.845-35.6 704.693 704.693 0 0 0-339.863 131.22 58.521 58.521 0 0 1 6.774 30.322 80.339 80.339 0 0 1-11.499 42.69z m-4.57 295.519c27.961-14.965 67.264-38.91 111.292-73.328a79.866 79.866 0 0 1-4.725-52.692 795.192 795.192 0 0 1-147.051-131.299 106.96 106.96 0 0 1-31.27 6.064c-14.965 0-30.48-4.095-42.531-11.184-27.804 27.174-55.45 72.305-69.075 99.873a429.337 429.337 0 0 0 183.36 162.567zM110.978 202.805C84.67 257.231 72.383 321.343 72.383 384.433c0 63.168 13.47 123.106 37.57 177.453-0.158-0.158-1.653-2.442 0.866 2.126 13.233-27.015 31.742-58.206 64.822-86.01-4.173-12.601-6.221-23.627-6.221-33.789 0-19.06 4.725-39.539 17.642-52.85-43.24-62.616-66.081-133.187-76.085-188.558z m45.053-76.637l-4.175 4.884a652.552 652.552 0 0 0 81.284 230.776c5.985-1.418 16.618-3.15 22.998-3.15 13.233 0 25.914 1.653 36.862 9.214 90.42-67.105 210.77-120.743 366.956-139.962-95.617-46.391-214.156-134.447-299.93-256.688-86.48 32.058-150.2 79.866-203.995 154.928zM731 2.511c-71.202-40.564-137.835-59.073-219.198-59.073-32.843 0-53.559 1.496-84.354 8.35l-3.387 1.102c86.56 102.865 198.561 182.965 271.889 228.57 10.476-8.9 25.205-17.17 39.225-20.006 5.04-50.33 1.417-101.604-4.175-158.943z m61.593 42.61l-3.86-3.071a579.066 579.066 0 0 1-0.788 128.54c21.346 9.137 34.736 24.103 39.697 45.211 31.82-0.552 62.617 1.496 95.303 11.893-27.488-75.928-72.697-132.952-130.352-182.573z m35.837 228.02c-8.743 30.007-36.625 54.661-65.452 55.212-25.44 130.038-103.022 241.724-176.272 316.392a72.462 72.462 0 0 1 6.223 31.19c0 3.308-0.552 6.222-0.945 9.372 50.959 23.709 107.904 44.187 171.151 60.255a440.837 440.837 0 0 0 188.402-361.129c0-31.978-0.71-62.46-9.295-90.893-33.867-10.948-73.564-20.4-113.812-20.4z"  horiz-adv-x="1024" />

    
    <glyph glyph-name="APN" unicode="&#59041;" d="M84.425532 853.787234a40.851064 40.851064 0 0 1-40.851064-40.851064v-857.87234a40.851064 40.851064 0 0 1 40.851064-40.851064h1062.127659a40.851064 40.851064 0 0 1 40.851064 40.851064V812.93617a40.851064 40.851064 0 0 1-40.851064 40.851064h-1062.127659z m0 40.851064h1062.127659c45.121362 0 81.702128-36.580766 81.702128-81.702128v-857.87234c0-45.121362-36.580766-81.702128-81.702128-81.702128h-1062.127659c-45.121362 0-81.702128 36.580766-81.702128 81.702128V812.93617c0 45.121362 36.580766 81.702128 81.702128 81.702128zM483.921702 220.595745H414.355064l-27.653447 74.234553H260.106894L233.962213 220.595745H166.12766l123.359319 326.80851h67.616681l126.818042-326.80851z m-117.743659 129.29634l-43.63983 121.273192-42.773787-121.273192h86.413617zM517.838979 220.595745V547.404255h102.617872c38.890213 0 64.23966-1.634043 76.04834-4.902127 18.148766-4.902128 33.339915-15.572426 45.584341-31.994554 12.238979-16.422128 18.361191-37.637447 18.361191-63.64051 0-20.066043-3.529532-36.929362-10.583149-50.606298-7.059064-13.671489-16.024511-24.412596-26.89634-32.212426-10.877277-7.805277-21.928851-12.963404-33.165617-15.49617-15.267404-3.115574-37.376-4.678809-66.32034-4.678808h-41.700766V220.595745h-63.945532z m63.945532 271.523404v-92.737362h35.001191c25.202383 0 42.054809 1.710298 50.55183 5.125447 8.497021 3.420596 15.158468 8.769362 19.989787 16.051745 4.820426 7.282383 7.233362 15.75217 7.233362 25.414808 0 11.890383-3.387915 21.700085-10.152851 29.42366-6.770383 7.734468-15.338213 12.56034-25.708936 14.48851-7.636426 1.492426-22.974638 2.233191-46.020085 2.233192h-30.888852z m231.81617-271.523404V547.404255h62.213447l129.628595-218.242723V547.404255H1064.851064v-326.80851h-64.163404l-127.678639 213.117276V220.595745H813.589787z"  horiz-adv-x="1230" />

    
    <glyph glyph-name="liuliang1" unicode="&#58963;" d="M320 32v64H64a32 32 0 0 0-32 32V768a32 32 0 0 0 32 32h896a32 32 0 0 0 32-32v-640a32 32 0 0 0-32-32h-256v-64h96a32 32 0 1 0 0-64h-576a32 32 0 1 0 0 64H320z m64 0h256v64H384v-64z m-64 128h608v576h-832v-576H320zM246.656 329.344a32 32 0 1 0-45.312 45.312l192 192a32 32 0 0 0 45.312 0L608 397.248l169.344 169.408a32 32 0 0 0 45.312-45.312l-192-192a32 32 0 0 0-45.312 0L416 498.752 246.656 329.344z"  horiz-adv-x="1024" />

    
    <glyph glyph-name="dianxinVPDN" unicode="&#59819;" d="M927.439 428.907h-16.276V860.059a35.933 35.933 0 0 1-71.867 0v-431.152h-646.72V860.059a35.933 35.933 0 0 1-71.866 0v-431.152h-3.937A116.902 116.902 0 0 1 0 312.133v-323.36A116.902 116.902 0 0 1 116.773-128H927.44a116.902 116.902 0 0 1 116.773 116.773v323.36a116.902 116.902 0 0 1-116.773 116.774z m44.987-440.134a44.987 44.987 0 0 0-44.987-44.987h-810.65a44.987 44.987 0 0 0-44.987 44.987v323.36a44.987 44.987 0 0 0 44.987 44.987h810.65a44.987 44.987 0 0 0 44.987-44.987zM337.226 116.038h53.904q17.962 0 17.962-17.962v-53.904q0-17.963-17.962-17.963h-53.904q-17.963 0-17.963 17.963v53.904q0 17.962 17.963 17.962zM495.162 116.038h53.904q17.963 0 17.963-17.962v-53.904q0-17.963-17.963-17.963h-53.904q-17.963 0-17.963 17.963v53.904q0 17.962 17.963 17.962zM653.115 116.038h53.904q17.962 0 17.962-17.962v-53.904q0-17.963-17.962-17.963h-53.904q-17.963 0-17.963 17.963v53.904q0 17.962 17.963 17.962zM306.538 735.06a26.832 26.832 0 0 1 19.489 8.338c17.93 18.734 84.383 79.948 186.792 80.334h0.868c102.924 0 169.65-61.44 187.692-80.334a26.944 26.944 0 0 1 38.962 37.226c-21.787 22.783-102.345 96.963-226.654 96.963h-1.044c-123.715-0.417-203.936-74.308-225.562-96.963a26.944 26.944 0 0 1 19.473-45.565z m346.85-128.76a26.944 26.944 0 0 1 19.489 45.565c-15.296 16.067-71.867 68.107-159.158 68.107h-0.755c-86.97-0.305-143.251-52.217-158.434-68.107a26.955 26.955 0 0 1 38.978-37.242c11.471 12.017 53.968 51.204 119.633 51.413h0.562c65.874 0 108.644-39.347 120.196-51.413a26.848 26.848 0 0 1 19.489-8.323z m-140.2-40.167c-59.8-0.209-98.585-35.925-109.044-46.883a26.944 26.944 0 1 1 38.962-37.227c6.748 7.054 31.732 30.093 70.26 30.206h0.337c38.785 0 63.785-23.088 70.55-30.173a26.944 26.944 0 0 1 39.01 37.162c-10.508 11.038-49.358 46.915-109.592 46.915z"  horiz-adv-x="1044" />

    
    <glyph glyph-name="shuxing2" unicode="&#58951;" d="M788.983607 739.322404h-503.606558c-61.551913 0-111.912568-50.360656-111.912568-111.912568v-503.606557c0-61.551913 50.360656-111.912568 111.912568-111.912569h503.606558c61.551913 0 111.912568 50.360656 111.912568 111.912569v503.606557c0 61.551913-50.360656 111.912568-111.912568 111.912568z m55.956284-615.519125c0-33.57377-22.382514-55.956284-55.956284-55.956284h-503.606558c-33.57377 0-55.956284 22.382514-55.956284 55.956284v503.606557c0 33.57377 22.382514 55.956284 55.956284 55.956284h503.606558c33.57377 0 55.956284-22.382514 55.956284-55.956284v-503.606557zM705.04918 235.715847h-223.825136c-16.786885 0-27.978142-11.191257-27.978142-27.978142s11.191257-27.978142 27.978142-27.978142h223.825136c16.786885 0 27.978142 11.191257 27.978142 27.978142s-11.191257 27.978142-27.978142 27.978142zM705.04918 403.584699h-223.825136c-16.786885 0-27.978142-11.191257-27.978142-27.978142s11.191257-27.978142 27.978142-27.978142h223.825136c16.786885 0 27.978142 11.191257 27.978142 27.978142s-11.191257 27.978142-27.978142 27.978142zM705.04918 571.453552h-223.825136c-16.786885 0-27.978142-11.191257-27.978142-27.978142s11.191257-27.978142 27.978142-27.978142h223.825136c16.786885 0 27.978142 11.191257 27.978142 27.978142s-11.191257 27.978142-27.978142 27.978142zM369.311475 375.606557m-27.978142 0a27.978142 27.978142 0 1 1 55.956284 0 27.978142 27.978142 0 1 1-55.956284 0ZM369.311475 543.47541m-27.978142 0a27.978142 27.978142 0 1 1 55.956284 0 27.978142 27.978142 0 1 1-55.956284 0ZM369.311475 207.737705m-27.978142 0a27.978142 27.978142 0 1 1 55.956284 0 27.978142 27.978142 0 1 1-55.956284 0Z"  horiz-adv-x="1074" />

    
    <glyph glyph-name="gongneng" unicode="&#59828;" d="M750.147 766.607c-79.211 0-143.499-64.288-143.499-143.504 0-79.21 64.288-143.497 143.499-143.497 79.209 0 143.497 64.288 143.497 143.497 0.001 79.332-64.172 143.504-143.497 143.504z m0 63.828c114.457 0 207.325-92.759 207.325-207.332 0-114.566-92.759-207.325-207.325-207.325-114.573 0-207.332 92.759-207.332 207.325 0 114.573 92.874 207.332 207.332 207.332z m-621.758-63.828v-287.002H415.39V766.607H128.389z m0 63.828H415.39c35.242 0 63.828-28.586 63.828-63.828v-287.002c0-35.242-28.586-63.828-63.828-63.828H128.389c-35.243 0-63.828 28.587-63.828 63.828V766.607c-0.001 35.242 28.585 63.828 63.828 63.828z m0-542.088v-286.996H415.39V288.347H128.389z m0 63.718H415.39c35.242 0 63.828-28.585 63.828-63.828v-287c0-35.249-28.586-63.828-63.828-63.828H128.389c-35.243 0-63.828 28.579-63.828 63.828v287c-0.001 35.243 28.585 63.828 63.828 63.828z m478.26-63.718v-286.996h286.996V288.347H606.649z m0 63.718h286.996c35.247 0 63.828-28.585 63.828-63.828v-287c0-35.249-28.581-63.828-63.828-63.828H606.649c-35.247 0-63.834 28.579-63.834 63.828v287c0.115 35.243 28.701 63.828 63.834 63.828z m0 0"  horiz-adv-x="1024" />

    
    <glyph glyph-name="xiaoshou" unicode="&#58942;" d="M398.6 501h-72.4M694.8 501h-72.4M510.5 630c42 0 78.7-22.9 98.2-57h78.2c-23.7 74.8-93.7 129-176.4 129s-152.6-54.2-176.4-129h78.2c19.5 34.1 56.2 57 98.2 57zM623.5 517c0 20.4-5.4 39.5-14.8 56H412.3c-9.4-16.5-14.8-35.6-14.8-56 0-5.4 0.4-10.8 1.1-16h223.7c0.8 5.2 1.2 10.6 1.2 16zM864 573H686.9c5.6-17.7 8.6-36.5 8.6-56 0-5.4-0.2-10.7-0.7-16H864v-471H158V501h168.2c-0.5 5.3-0.7 10.6-0.7 16 0 19.5 3 38.3 8.6 56H158c-39.8 0-72-32.2-72-72v-471c0-39.8 32.2-72 72-72h706c39.8 0 72 32.2 72 72V501c0 39.8-32.2 72-72 72zM623.5 517c0-5.4-0.4-10.8-1.1-16h72.4c0.5 5.3 0.7 10.6 0.7 16 0 19.5-3 38.3-8.6 56h-78.2c9.4-16.5 14.8-35.6 14.8-56zM326.2 501h72.4c-0.7 5.2-1.1 10.6-1.1 16 0 20.4 5.4 39.5 14.8 56h-78.2c-5.6-17.7-8.6-36.5-8.6-56 0-5.4 0.2-10.7 0.7-16zM420 130.5l-88.2 88.2c-14.1 14.1-14.1 36.9 0 50.9 14.1 14.1 36.9 14.1 50.9 0l88.2-88.2c14.1-14.1 14.1-36.9 0-50.9-14.1-14.1-36.9-14.1-50.9 0zM702.9 362.79999999999995L471 130.89999999999998c-14.1-14.1-36.9-14.1-50.9 0-14.1 14.1-14.1 36.9 0 50.9l231.9 232c14.1 14.1 36.9 14.1 50.9 0 14.1-14.1 14.1-36.9 0-51z"  horiz-adv-x="1024" />

    
    <glyph glyph-name="shoukuangoucheng" unicode="&#58947;" d="M647.50014368 670.92257167c0 35.42884827-28.70077372 64.12962199-64.12962198 64.12962197H423.003884c-35.42884827 0-64.12962199-28.70077372-64.12962198-64.12962198l-32.10739374-208.48514557c0-35.42884827 28.70077372-64.12962199 64.12962198-64.12962198h224.49625968c35.42884827 0 64.12962199 28.70077372 64.12962199 64.12962198l-32.02222825 208.48514557z m-64.12962198-208.48514559H423.003884c-17.71442413 0-32.10739375 14.39296961-32.10739375 32.10739375l32.10739375 144.35552359c0 17.71442413 14.39296961 32.10739375 32.10739375 32.10739374h96.23701571c17.71442413 0 32.10739375-14.39296961 32.10739375-32.10739375l32.10739373-144.35552358c-0.170331-17.71442413-14.47813511-32.10739375-32.19255924-32.10739375zM455.11127774 302.07078838999996c0 35.42884827-28.70077372 64.12962199-64.12962199 64.12962198H230.52985255c-35.42884827 0-64.12962199-28.70077372-64.12962199-64.12962198L134.37800232 93.58564280999997c0-35.42884827 28.70077372-64.12962199 64.12962199-64.12962198h224.49625969c35.42884827 0 64.12962199 28.70077372 64.12962199 64.12962198l-32.02222825 208.48514558zM390.89649025 93.58564280999997H230.52985255c-17.71442413 0-32.10739375 14.39296961-32.10739375 32.10739375l32.10739375 144.35552358c0 17.71442413 14.39296961 32.10739375 32.10739374 32.10739375h96.23701573c17.71442413 0 32.10739375-14.39296961 32.10739373-32.10739375l32.10739374-144.35552359c-0.08516551-17.71442413-14.47813511-32.10739375-32.19255924-32.10739374zM855.98528926 302.07078838999996c0 35.42884827-28.70077372 64.12962199-64.12962199 64.12962198H631.48902956c-35.42884827 0-64.12962199-28.70077372-64.12962198-64.12962198L535.25201384 93.58564280999997c0-35.42884827 28.70077372-64.12962199 64.12962199-64.12962198h224.49625968c35.42884827 0 64.12962199 28.70077372 64.12962198 64.12962198L855.98528926 302.07078838999996zM791.85566728 93.58564280999997H631.48902956c-17.71442413 0-32.10739375 14.39296961-32.10739374 32.10739375l32.10739374 144.35552358c0 17.71442413 14.39296961 32.10739375 32.10739375 32.10739375h96.23701571c17.71442413 0 32.10739375-14.39296961 32.10739375-32.10739375l32.10739374-144.35552359c-0.170331-17.71442413-14.47813511-32.10739375-32.19255924-32.10739374z"  horiz-adv-x="1024" />

    
    <glyph glyph-name="icon-" unicode="&#58977;" d="M268.02606186-38.30899283999997a117.44211993 117.44211993 0 0 0-117.28124029 117.2812403L150.74482157 689.0277525399999A117.44211993 117.44211993 0 0 0 268.02606186 806.30899284l488.02831609 0a117.44211993 117.44211993 0 0 0 117.2812403-117.2812403l0-609.97506528a117.44211993 117.44211993 0 0 0-117.2812403-117.28124029z m0 792.97562884a65.79976308 65.79976308 0 0 1-65.71932328-65.71932326l0-609.97506528a65.79976308 65.79976308 0 0 1 65.71932328-65.71932326l488.02831609 0a65.79976308 65.79976308 0 0 1 65.71932328 65.71932326L821.77370123 689.0277525399999a65.79976308 65.79976308 0 0 1-65.71932328 65.71932326zM318.94446042 358.17882159a25.82117841 25.82117841 0 1 0 0 51.56191701l386.11107916 0a25.82117841 25.82117841 0 1 0 0-51.56191701zM318.94446042 236.23207242a25.82117841 25.82117841 0 1 0 0 51.24015779l263.44037172 0a25.82117841 25.82117841 0 1 0 0-51.64235684zM318.94446042 480.52776979a25.82117841 25.82117841 0 1 0 0 51.64235684l386.11107916 0a25.82117841 25.82117841 0 1 0 0-51.64235684z"  horiz-adv-x="1024" />

    
    <glyph glyph-name="gaojing" unicode="&#59156;" d="M826.056-13.495c0-27.833-22.561-50.41-50.41-50.41H248.34c-27.835 0-50.396 22.576-50.396 50.41 0 27.848 22.561 50.422 50.396 50.422h527.309c27.848 0 50.408-22.574 50.408-50.422zM512 661.77c-15.004 0-27.145 12.14-27.145 27.145V804.759c0 15.004 12.141 27.145 27.145 27.145s27.145-12.141 27.145-27.145v-115.845c0-15.004-12.141-27.145-27.145-27.145zM308.516 587.782c-7.74 0-15.429 3.287-20.784 9.702l-74.437 88.673c-9.65 11.478-8.165 28.603 3.34 38.226 11.452 9.676 28.577 8.192 38.227-3.34l74.437-88.672c9.65-11.479 8.165-28.604-3.34-38.227a27.089 27.089 0 0 0-17.443-6.362zM200.358 400.256c-1.59 0-3.181 0.133-4.771 0.424L81.49 420.8c-14.739 2.598-24.6 16.674-22.002 31.44 2.598 14.792 16.913 24.707 31.44 22.002l114.096-20.12c14.738-2.598 24.6-16.674 22.002-31.44-2.334-13.175-13.785-22.427-26.669-22.427zM715.431 587.729a27.094 27.094 0 0 0-17.443 6.362c-11.505 9.623-12.99 26.748-3.34 38.227l74.437 88.725c9.597 11.479 26.722 12.964 38.227 3.34 11.505-9.623 12.99-26.748 3.34-38.226l-74.437-88.726c-5.355-6.415-13.043-9.702-20.784-9.702zM823.64 400.256c-12.883 0-24.335 9.252-26.668 22.427-2.598 14.765 7.264 28.842 22.002 31.44l114.096 20.12c14.368 2.73 28.789-7.183 31.44-22.002 2.598-14.765-7.263-28.842-22.002-31.44l-114.096-20.12a26.38 26.38 0 0 0-4.771-0.425zM736.88 351.4c0 126.675-100.685 229.364-224.881 229.364s-224.88-102.69-224.88-229.363V91.22h449.76V351.4z"  horiz-adv-x="1024" />

    
    <glyph glyph-name="zhengchang" unicode="&#58941;" d="M883.7 709.15c-27 0-96.46 3.64-185.66 35.28-95.6 34-185.56 98.47-185.56 98.47s-93.7-63.67-170.37-93C241.44 711.26 150 709.06 131.5 709.06a3.36 3.36 0 0 1-3.35-3.35v-389.49c0-175.34 244.17-391.12 384.33-391.12 145.6 0 383.37 223.33 383.37 391.12V709.44s-4.21-0.29-12.15-0.29zM678.58 479.29l-172-240.92a32 32 0 0 0-44.58-7.45L352.86 308.8a32 32 0 0 0-7.45 44.64 32 32 0 0 0 44.64 7.45l83.06-59.29 153.38 214.87a32 32 0 0 0 44.64 7.45 32 32 0 0 0 7.45-44.63z"  horiz-adv-x="1024" />

    
    <glyph glyph-name="biaoshi" unicode="&#58958;" d="M172.074667-128a68.266667 68.266667 0 0 0-68.266667 68.266667V827.733333A68.266667 68.266667 0 0 0 172.074667 896h679.850666a68.266667 68.266667 0 0 0 68.266667-68.266667v-887.466666a68.266667 68.266667 0 0 0-68.266667-68.266667l-324.266666 188.672L172.074667-128z m340.650666 426.666667L680.661333 213.333333l-25.6 195.413334 129.194667 142.421333-183.552 35.157333-88.405333 173.568-88.405334-173.568-184.234666-35.157333L368.853333 408.746667 343.253333 213.333333l168.618667 85.333334z"  horiz-adv-x="1024" />

    
    <glyph glyph-name="f-location" unicode="&#59221;" d="M509.333333 563.733333c-57.6 0-101.333333-43.733333-101.333333-101.333333s43.733333-101.333333 101.333333-101.333333 101.333333 43.733333 101.333334 101.333333-43.733333 101.333333-101.333334 101.333333zM871.466667 620.8c-19.733333 48-48 87.466667-84.8 121.6-36.8 34.133333-76.266667 62.4-124.266667 82.133333-48 19.733333-99.2 30.933333-152.533333 30.933334C456 855.466667 405.333333 846.933333 357.333333 824.533333c-48-19.733333-90.666667-48-124.266666-82.133333S167.466667 666.133333 147.2 620.8c-19.733333-48-30.933333-99.2-30.933333-149.866667 0-76.266667 19.733333-147.2 53.866666-220.266666 28.266667-56.533333 67.733333-113.066667 118.933334-166.933334 84.8-90.666667 175.466667-147.2 200.533333-161.066666 5.866667-5.866667 17.066667-5.866667 22.4-5.866667 8.533333 0 17.066667 2.666667 22.4 5.866667 25.6 14.4 115.733333 70.933333 200.533333 161.066666 48 53.866667 90.666667 110.4 118.933334 166.933334 34.133333 70.933333 53.866667 147.2 53.866666 220.266666-5.333333 50.666667-13.866667 101.866667-36.266666 149.866667z m-362.133334-345.066667c-104.533333 0-186.666667 82.133333-186.666666 186.666667s82.133333 186.666667 186.666666 186.666667 186.666667-82.133333 186.666667-186.666667-82.133333-186.666667-186.666667-186.666667z"  horiz-adv-x="1024" />

    
    <glyph glyph-name="diannao" unicode="&#58934;" d="M626.311 51.44c-15.54 11.426-17.192 28.587-17.192 28.587l-5.823 37.253H417.584l-5.843-37.233s-1.63-17.182-17.161-28.607c-15.53-11.425-27.788-21.232-15.53-22.896 11.809-1.587 123.176-0.13 131.396 0 8.23-0.13 119.576-1.587 131.384 0 12.248 1.654-0.01 11.448-15.519 22.897zM266.138 444.561h71.718v-134.488h-71.718V444.561zM418.548 507.32h71.728v-197.247h-71.728V507.321zM562.005 444.561h71.729v-134.488h-71.73V444.561zM696.487 507.32h71.728v-197.247h-71.728V507.321zM462.457 582.99l144.988-92.874 200.41 145.012-21.035 29.045L606.22 533.49l-141.925 90.92L213.016 495.2l16.59-31.794zM922.845 744.86H98.025c-19.81 0-35.864-16.055-35.864-35.859v-519.992c0-19.81 16.054-35.875 35.864-35.875h824.82c19.81 0 35.864 16.066 35.864 35.875V709.001c0.001 19.803-16.055 35.859-35.864 35.859zM904.93 260.726H115.962V691.07H904.93v-430.343z"  horiz-adv-x="1024" />

    
    <glyph glyph-name="shenqing" unicode="&#58938;" d="M736.768 306.176c0 6.144-5.12 11.264-11.264 11.264h-427.52c-6.144 0-11.264-5.12-11.264-11.264v-44.544c0-6.144 5.12-11.264 11.264-11.264h427.52c6.144 0 11.264 5.12 11.264 11.264v44.544z m-11.264-145.408h-427.52c-6.144 0-11.264-5.12-11.264-11.264v-44.544c0-6.144 5.12-11.264 11.264-11.264h427.52c6.144 0 11.264 5.12 11.264 11.264v44.544c0 6.656-4.608 11.264-11.264 11.264z m146.432 401.92h20.48v-600.576H131.584V806.4h560.64l67.584 68.608H152.576c-49.664 0-90.112-39.936-90.112-89.088v-803.328c0-49.152 40.448-89.088 90.112-89.088h719.872c49.664 0 90.112 39.936 90.112 89.088V629.248l-90.624-66.56z m78.336 222.208c11.776 15.872 6.144 33.792-0.512 44.544-10.24 17.408-30.72 33.792-44.032 38.4-12.8 4.096-34.304 6.656-48.64-9.216C851.456 852.48 841.216 839.68 835.072 832l95.232-74.24c-0.512 0.512 7.68 11.264 19.968 27.136zM615.936 536.064c-3.584-11.776-13.312-68.096-13.824-85.504-0.512-16.384 5.12-22.016 20.992-17.92 15.36 4.096 67.072 28.672 82.944 39.424 7.68 5.12 15.36 12.8 20.48 18.944 8.192 10.24 173.568 228.864 173.568 228.864l-95.232 74.24S640 578.048 628.224 561.664c-6.144-9.216-9.216-16.384-12.288-25.6z"  horiz-adv-x="1024" />

    
    <glyph glyph-name="jiankong" unicode="&#59118;" d="M862.3 101H161c-63 0-96 33-96 96V702.5c0 62.2 33 96 96 96h701.2c65.8 0 96.1-33.8 96.1-96.1V197c0-59.2-30.3-96-96-96zM895 724.8c0 5.3-4.4 9.6-9.7 9.6h-746c-5.3 0-9.7-4.3-9.7-9.6v-551.7c0-5.3 4.4-9.6 9.7-9.6h746c5.3 0 9.7 4.3 9.7 9.6V724.8zM323.5 265c-17.6 0-32 14.4-32 32V520.3c0 17.6 14.4 32 32 32s32-14.4 32-32V297c0-17.6-14.4-32-32-32z m225.2 0c-17.6 0-32 14.4-32 32V602.4c0 17.6 14.4 32 32 32s32-14.4 32-32V297c0-17.6-14.4-32-32-32zM268.1 1.4c0 17.6 14.4 32 32 32h422.6c17.6 0 32-14.4 32-32s-14.4-32-32-32H300.1c-17.6 0-32 14.4-32 32zM740.9 265c-17.6 0-32 14.4-32 32V438.3c0 17.6 14.4 32 32 32s32-14.4 32-32V297c0-17.6-14.4-32-32-32z"  horiz-adv-x="1024" />

    
    <glyph glyph-name="chengyuanguanli" unicode="&#59270;" d="M544 364.8H512c-236.8 0-428.8-192-428.8-428.8h64c0 198.4 160 364.8 358.4 364.8l38.4 64zM512 384c121.6 0 224 102.4 224 224S633.6 832 512 832 288 729.6 288 608 390.4 384 512 384z m0 384c89.6 0 160-70.4 160-160S601.6 448 512 448 352 518.4 352 608C352 691.2 422.4 768 512 768zM864 384h-256l-128-224 128-224h256l128 224-128 224z m-38.4-384H640l-89.6 160L646.4 320H832l89.6-160-96-160zM736 256c-51.2 0-96-44.8-96-96s44.8-96 96-96 96 44.8 96 96-44.8 96-96 96z m0-128c-19.2 0-32 12.8-32 32s12.8 32 32 32 32-12.8 32-32-12.8-32-32-32z"  horiz-adv-x="1024" />

    
    <glyph glyph-name="dinggou" unicode="&#58939;" d="M991.744 678.4v1.536 1.024 1.024 1.024c0 0.512 0 1.024-0.512 2.048V686.08c0 0.512 0 0.512-0.512 1.024 0 0.512 0 0.512-0.512 1.024 0 0.512-0.512 0.512-0.512 1.024s0 0.512-0.512 1.024-0.512 0.512-0.512 1.024 0 0.512-0.512 0.512c-0.512 0.512-0.512 1.024-1.024 1.536l-0.512 0.512c0 0.512-0.512 1.024-1.024 1.024l-0.512 0.512-1.024 1.024-0.512 0.512-1.024 1.024-0.512 0.512-1.536 1.536c-0.512 0.512-1.024 0.512-1.536 1.024l-0.512 0.512-0.512 0.512-0.512 0.512-0.512 0.512c-0.512 0.512-1.024 0.512-1.536 1.024h-0.512c-1.536 0.512-2.56 1.024-4.096 1.536l-450.56 156.672c-6.144 2.048-12.8 2.048-19.456 0L52.224 705.536c-1.536-0.512-3.072-1.024-4.608-2.048-0.512-0.512-1.024-0.512-1.536-1.024l-0.512-0.512-0.512-0.512H43.52c-0.512-0.512-1.024-0.512-1.536-1.024l-1.536-1.536-0.512-0.512-1.024-1.024v-1.024l-1.024-1.024-0.512-0.512c-0.512-0.512-0.512-1.024-1.024-1.024l-0.512-0.512c0-0.512 0-1.024-0.512-1.536 0 0 0-0.512-0.512-0.512s-0.512-0.512-0.512-1.024 0-0.512-0.512-1.024c0-0.512-0.512-0.512-0.512-1.024s0-0.512-0.512-1.024c0-0.512 0-0.512-0.512-1.024s0-0.512 0-1.024-0.512-1.024-0.512-2.048V133.12c0-11.776 6.656-22.016 17.408-27.136l450.56-199.68c1.024-0.512 2.56-1.024 3.584-1.536 1.536-0.512 2.56-0.512 4.096-1.024H516.096c1.536 0 2.56 0.512 4.096 1.024 1.024 0.512 2.56 1.024 3.584 1.536l450.56 199.68c10.752 4.608 17.408 15.36 17.408 27.136V678.4zM512 803.328L878.592 675.84l-358.912-143.872-7.68-3.072-7.68 3.072L145.408 675.84 512 803.328z m-421.376-168.96l391.68-156.672v-498.688l-391.68 173.568V634.368z m842.752-482.304l-391.68-173.568V477.184l391.68 156.672v-481.792zM204.8 426.496l137.216-58.88V426.496L204.8 485.376v-58.88z"  horiz-adv-x="1024" />

    
    <glyph glyph-name="SIM" unicode="&#58933;" d="M872.8 649.8H319.1L71.4 401.2v-261.4c0-40.2 32.6-72.9 72.9-72.9h728.6c40.2 0 72.9 32.6 72.9 72.9V576.9c-0.2 40.3-32.8 72.9-73 72.9zM537.6 168.9h-58.3c-24.1 0-43.7 19.6-43.7 43.7V300h102v-131.1z m0 174.9h-102v72.9h102v-72.9z m0 116.5h-102V504c0 24.1 19.6 43.7 43.7 43.7h58.3v-87.4z m145.7-291.4h-102V547.8h102v-378.9z m131.2 43.7c0-24.1-19.6-43.7-43.7-43.7h-43.7V300.1h87.4v-87.5z m0 131.2h-87.4v72.9h87.4v-72.9z m0 116.5h-87.4v87.4h43.7c24.1 0 43.7-19.6 43.7-43.7v-43.7z m0 0"  horiz-adv-x="1024" />

    
    <glyph glyph-name="riqi1" unicode="&#58956;" d="M650.24 678.4h58.88c74.24 0 135.68-61.44 135.68-135.68v-10.24l-665.6-5.12v15.36c0 74.24 61.44 135.68 135.68 135.68h58.88v25.6c0 15.36 12.8 28.16 28.16 28.16 15.36 0 28.16-12.8 28.16-28.16v-25.6h168.96v25.6c0 15.36 12.8 28.16 28.16 28.16 15.36 0 28.16-12.8 28.16-28.16v-25.6z m-243.2-317.44c-10.24 10.24-28.16 10.24-38.4 0-10.24-10.24-10.24-28.16 0-38.4l87.04-87.04c5.12-5.12 12.8-7.68 20.48-7.68 7.68 0 12.8 2.56 17.92 7.68l148.48 133.12c10.24 10.24 12.8 28.16 2.56 38.4s-28.16 12.8-38.4 2.56l-130.56-115.2-69.12 66.56zM179.2 174.08V501.76l665.6 5.12v-332.8c0-74.24-61.44-135.68-135.68-135.68H314.88c-74.24 0-135.68 61.44-135.68 135.68z"  horiz-adv-x="1024" />

    
    </font>
</defs>
</svg>
